<svg xmlns="http://www.w3.org/2000/svg" xmlns:xlink="http://www.w3.org/1999/xlink" viewBox="0 0 512 512"><defs><style>.cls-1{isolation:isolate;}.cls-2{fill:url(#linear-gradient);}.cls-3{fill:url(#linear-gradient-2);}.cls-4,.cls-6{opacity:0.8;}.cls-5{fill:#fff;}.cls-10,.cls-11,.cls-13,.cls-14,.cls-15,.cls-16,.cls-17,.cls-18,.cls-19,.cls-20,.cls-21,.cls-22,.cls-23,.cls-24,.cls-25,.cls-26,.cls-27,.cls-28,.cls-29,.cls-30,.cls-31,.cls-32,.cls-33,.cls-34,.cls-35,.cls-36,.cls-37,.cls-38,.cls-39,.cls-54,.cls-55,.cls-56,.cls-57,.cls-58,.cls-59,.cls-6,.cls-61,.cls-62,.cls-63,.cls-64,.cls-65,.cls-66,.cls-67,.cls-68,.cls-69,.cls-7,.cls-70,.cls-71,.cls-72,.cls-73,.cls-74,.cls-75,.cls-76,.cls-77,.cls-78,.cls-79,.cls-8,.cls-9{mix-blend-mode:color-dodge;}.cls-6{fill:url(#radial-gradient);}.cls-10,.cls-11,.cls-13,.cls-14,.cls-15,.cls-16,.cls-17,.cls-18,.cls-19,.cls-20,.cls-22,.cls-23,.cls-24,.cls-25,.cls-26,.cls-27,.cls-28,.cls-29,.cls-30,.cls-31,.cls-32,.cls-33,.cls-54,.cls-55,.cls-56,.cls-57,.cls-58,.cls-59,.cls-61,.cls-62,.cls-63,.cls-64,.cls-65,.cls-66,.cls-68,.cls-69,.cls-7,.cls-70,.cls-71,.cls-72,.cls-73,.cls-74,.cls-75,.cls-76,.cls-77,.cls-8,.cls-9{opacity:0.75;}.cls-7{fill:url(#radial-gradient-2);}.cls-8{fill:url(#radial-gradient-3);}.cls-9{fill:url(#radial-gradient-4);}.cls-10{fill:url(#radial-gradient-5);}.cls-11{fill:url(#radial-gradient-6);}.cls-12,.cls-40,.cls-41,.cls-42,.cls-43,.cls-44,.cls-45,.cls-46,.cls-47,.cls-48,.cls-49,.cls-50,.cls-51,.cls-52,.cls-53,.cls-60,.cls-80,.cls-81,.cls-82,.cls-83,.cls-84,.cls-85,.cls-86,.cls-87,.cls-88{mix-blend-mode:overlay;}.cls-12,.cls-52,.cls-53,.cls-60{opacity:0.64;}.cls-12{fill:url(#radial-gradient-7);}.cls-13{fill:url(#radial-gradient-8);}.cls-14{fill:url(#radial-gradient-9);}.cls-15{fill:url(#radial-gradient-10);}.cls-16{fill:url(#radial-gradient-11);}.cls-17{fill:url(#radial-gradient-12);}.cls-18{fill:url(#radial-gradient-13);}.cls-19{fill:url(#radial-gradient-14);}.cls-20{fill:url(#radial-gradient-15);}.cls-21{fill:url(#radial-gradient-16);}.cls-22{fill:url(#radial-gradient-17);}.cls-23{fill:url(#radial-gradient-18);}.cls-24{fill:url(#radial-gradient-19);}.cls-25{fill:url(#radial-gradient-20);}.cls-26{fill:url(#radial-gradient-21);}.cls-27{fill:url(#radial-gradient-22);}.cls-28{fill:url(#radial-gradient-23);}.cls-29{fill:url(#radial-gradient-24);}.cls-30{fill:url(#radial-gradient-25);}.cls-31{fill:url(#radial-gradient-26);}.cls-32{fill:url(#radial-gradient-27);}.cls-33{fill:url(#radial-gradient-28);}.cls-34{fill:url(#Degradado_sin_nombre_129);}.cls-35{fill:url(#Degradado_sin_nombre_129-2);}.cls-36{fill:url(#Degradado_sin_nombre_129-3);}.cls-37{fill:url(#radial-gradient-29);}.cls-38{fill:url(#radial-gradient-30);}.cls-39{fill:url(#radial-gradient-31);}.cls-40{opacity:0.52;fill:url(#radial-gradient-32);}.cls-41,.cls-48,.cls-80{opacity:0.71;}.cls-41{fill:url(#radial-gradient-33);}.cls-42,.cls-43,.cls-44,.cls-81,.cls-82,.cls-83{opacity:0.47;}.cls-42{fill:url(#radial-gradient-34);}.cls-43{fill:url(#radial-gradient-35);}.cls-44{fill:url(#radial-gradient-36);}.cls-45,.cls-46,.cls-47,.cls-84,.cls-85{opacity:0.31;}.cls-45{fill:url(#radial-gradient-37);}.cls-46{fill:url(#radial-gradient-38);}.cls-47{fill:url(#radial-gradient-39);}.cls-48{fill:url(#radial-gradient-40);}.cls-49,.cls-86{opacity:0.18;}.cls-49{fill:url(#radial-gradient-41);}.cls-50,.cls-87{opacity:0.49;}.cls-50{fill:url(#radial-gradient-42);}.cls-51,.cls-88{opacity:0.41;}.cls-51{fill:url(#radial-gradient-43);}.cls-52{fill:url(#radial-gradient-44);}.cls-53{fill:url(#radial-gradient-45);}.cls-54{fill:url(#radial-gradient-46);}.cls-55{fill:url(#radial-gradient-47);}.cls-56{fill:url(#radial-gradient-48);}.cls-57{fill:url(#radial-gradient-49);}.cls-58{fill:url(#radial-gradient-50);}.cls-59{fill:url(#radial-gradient-51);}.cls-60{fill:url(#radial-gradient-52);}.cls-61{fill:url(#radial-gradient-53);}.cls-62{fill:url(#radial-gradient-54);}.cls-63{fill:url(#radial-gradient-55);}.cls-64{fill:url(#radial-gradient-56);}.cls-65{fill:url(#radial-gradient-57);}.cls-66{fill:url(#radial-gradient-58);}.cls-67{fill:url(#radial-gradient-59);}.cls-68{fill:url(#radial-gradient-60);}.cls-69{fill:url(#radial-gradient-61);}.cls-70{fill:url(#radial-gradient-62);}.cls-71{fill:url(#radial-gradient-63);}.cls-72{fill:url(#radial-gradient-64);}.cls-73{fill:url(#radial-gradient-65);}.cls-74{fill:url(#radial-gradient-66);}.cls-75{fill:url(#radial-gradient-67);}.cls-76{fill:url(#radial-gradient-68);}.cls-77{fill:url(#radial-gradient-69);}.cls-78{fill:url(#Degradado_sin_nombre_129-4);}.cls-79{fill:url(#Degradado_sin_nombre_129-5);}.cls-80{fill:url(#radial-gradient-70);}.cls-81{fill:url(#radial-gradient-71);}.cls-82{fill:url(#radial-gradient-72);}.cls-83{fill:url(#radial-gradient-73);}.cls-84{fill:url(#radial-gradient-74);}.cls-85{fill:url(#radial-gradient-75);}.cls-86{fill:url(#radial-gradient-76);}.cls-87{fill:url(#radial-gradient-77);}.cls-88{fill:url(#radial-gradient-78);}.cls-89{fill:url(#linear-gradient-3);}.cls-90{fill:url(#linear-gradient-4);}.cls-91{fill:url(#linear-gradient-5);}.cls-92{fill:url(#linear-gradient-6);}.cls-93{fill:url(#linear-gradient-7);}.cls-94{fill:url(#linear-gradient-8);}.cls-95{fill:url(#linear-gradient-9);}.cls-96{fill:url(#linear-gradient-10);}.cls-97{fill:url(#linear-gradient-11);}.cls-98{fill:url(#linear-gradient-12);}.cls-99{fill:url(#linear-gradient-13);}.cls-100{fill:url(#linear-gradient-14);}.cls-101{fill:url(#linear-gradient-15);}.cls-102{fill:url(#linear-gradient-16);}.cls-103{fill:url(#linear-gradient-17);}.cls-104{fill:url(#linear-gradient-18);}.cls-105{fill:url(#linear-gradient-19);}.cls-106{fill:url(#linear-gradient-20);}.cls-107{fill:url(#linear-gradient-21);}.cls-108{fill:url(#linear-gradient-22);}.cls-109{fill:url(#linear-gradient-23);}.cls-110{fill:url(#linear-gradient-24);}.cls-111{fill:url(#linear-gradient-25);}.cls-112{fill:url(#linear-gradient-26);}.cls-113{fill:url(#linear-gradient-27);}.cls-114{fill:url(#linear-gradient-28);}.cls-115{fill:url(#linear-gradient-29);}.cls-116{fill:url(#linear-gradient-31);}.cls-117{fill:url(#linear-gradient-32);}.cls-118{fill:url(#linear-gradient-33);}.cls-119{fill:url(#linear-gradient-34);}.cls-120{fill:url(#linear-gradient-35);}</style><linearGradient id="linear-gradient" x1="36.81" y1="295.18" x2="59.99" y2="236.77" gradientUnits="userSpaceOnUse"><stop offset="0" stop-color="#ec2086"/><stop offset="1" stop-color="#802a87"/></linearGradient><linearGradient id="linear-gradient-2" x1="107.47" y1="269.38" x2="134.36" y2="220.24" xlink:href="#linear-gradient"/><radialGradient id="radial-gradient" cx="-559.96" cy="4089.4" r="1.85" gradientTransform="translate(-3458.4 -1779.1) rotate(-67.9)" gradientUnits="userSpaceOnUse"><stop offset="0" stop-color="#fff"/><stop offset="0.05" stop-color="#fdeaf3" stop-opacity="0.93"/><stop offset="0.42" stop-color="#f15aa5" stop-opacity="0.48"/><stop offset="0.58" stop-color="#ec2086" stop-opacity="0.3"/><stop offset="0.59" stop-color="#df1e7e" stop-opacity="0.28"/><stop offset="0.68" stop-color="#7e1147" stop-opacity="0.16"/><stop offset="0.76" stop-color="#380820" stop-opacity="0.07"/><stop offset="0.85" stop-color="#0e0208" stop-opacity="0.02"/><stop offset="0.93" stop-opacity="0"/></radialGradient><radialGradient id="radial-gradient-2" cx="-2177.61" cy="14214.12" r="4.7" gradientTransform="translate(3817.4 -2964.3) scale(1.7 0.23)" xlink:href="#radial-gradient"/><radialGradient id="radial-gradient-3" cx="127.18" cy="248.56" r="3.26" gradientTransform="matrix(1, 0, 0, 1, 0, 0)" xlink:href="#radial-gradient"/><radialGradient id="radial-gradient-4" cx="-2840.97" cy="8030.18" r="1.85" gradientTransform="translate(7555.5 -2797.9) scale(2.62 0.38)" xlink:href="#radial-gradient"/><radialGradient id="radial-gradient-5" cx="-2837.48" cy="8003.47" r="1.85" gradientTransform="translate(7540.3 -2800) scale(2.62 0.38)" xlink:href="#radial-gradient"/><radialGradient id="radial-gradient-6" cx="-2839.61" cy="7998.18" r="1.85" gradientTransform="translate(7541.9 -2793.6) scale(2.62 0.38)" xlink:href="#radial-gradient"/><radialGradient id="radial-gradient-7" cx="-4101.02" cy="5443.94" r="2.34" gradientTransform="matrix(-0.39, -0.92, 0.92, -0.39, -6496.89, -1400.37)" gradientUnits="userSpaceOnUse"><stop offset="0" stop-color="#fff" stop-opacity="0.5"/><stop offset="0.12" stop-color="#fffafc" stop-opacity="0.49"/><stop offset="0.22" stop-color="#fde9f3" stop-opacity="0.45"/><stop offset="0.3" stop-color="#fbcce3" stop-opacity="0.39"/><stop offset="0.38" stop-color="#f7a4cd" stop-opacity="0.29"/><stop offset="0.46" stop-color="#f36fb1" stop-opacity="0.18"/><stop offset="0.53" stop-color="#ed308f" stop-opacity="0.04"/><stop offset="0.55" stop-color="#ec2086" stop-opacity="0"/></radialGradient><radialGradient id="radial-gradient-8" cx="-794.72" cy="26164.31" r="5.01" gradientTransform="translate(902.6 -3292.8) scale(1 0.14)" xlink:href="#radial-gradient"/><radialGradient id="radial-gradient-9" cx="811.08" cy="2811.17" r="5.01" gradientTransform="matrix(0.92, -0.39, 0.05, 0.13, -795.9, 230.93)" xlink:href="#radial-gradient"/><radialGradient id="radial-gradient-10" cx="-2043.93" cy="10448.19" r="1.85" gradientTransform="matrix(0.64, -1.58, 0.31, 0.12, -1786.67, -4277.61)" xlink:href="#radial-gradient"/><radialGradient id="radial-gradient-11" cx="-1077.22" cy="1782.65" r="1.85" gradientTransform="matrix(1.57, -0.66, 0.13, 0.31, 1587.63, -1024.12)" xlink:href="#radial-gradient"/><radialGradient id="radial-gradient-12" cx="-1249.6" cy="-199.38" r="1.85" gradientTransform="matrix(1.57, -0.66, 0.13, 0.31, 2095.34, -518.67)" xlink:href="#radial-gradient"/><radialGradient id="radial-gradient-13" cx="-5959.22" cy="7417.65" r="1.85" gradientTransform="matrix(-1.58, -0.64, 0.12, -0.31, -10226.6, -1280.37)" xlink:href="#radial-gradient"/><radialGradient id="radial-gradient-14" cx="-2828.96" cy="8030.49" r="1.98" gradientTransform="translate(7536 -2827.1) scale(2.62 0.38)" xlink:href="#radial-gradient"/><radialGradient id="radial-gradient-15" cx="119.77" cy="222.15" r="2.72" gradientTransform="matrix(1, 0, 0, 1, 0, 0)" xlink:href="#radial-gradient"/><radialGradient id="radial-gradient-16" cx="-705.99" cy="18115.41" r="5.99" gradientTransform="translate(802.9 -3262.7) scale(1 0.2)" xlink:href="#radial-gradient"/><radialGradient id="radial-gradient-17" cx="2270.23" cy="1963.69" r="3.57" gradientTransform="translate(-1630.7 -1009.4) scale(0.77 0.63)" xlink:href="#radial-gradient"/><radialGradient id="radial-gradient-18" cx="118.04" cy="6886.03" r="3.57" gradientTransform="translate(13.5 -4099.9) scale(0.77 0.63)" xlink:href="#radial-gradient"/><radialGradient id="radial-gradient-19" cx="100.84" cy="6806.3" r="3.57" gradientTransform="translate(29.5 -4055.8) scale(0.77 0.63)" xlink:href="#radial-gradient"/><radialGradient id="radial-gradient-20" cx="-3928" cy="8766.42" r="3.57" gradientTransform="matrix(0, -0.77, 0.63, 0, -5430.47, -2759.82)" xlink:href="#radial-gradient"/><radialGradient id="radial-gradient-21" cx="-3920.27" cy="8766.53" r="3.57" gradientTransform="matrix(0, -0.77, 0.63, 0, -5432.8, -2759.38)" xlink:href="#radial-gradient"/><radialGradient id="radial-gradient-22" cx="-4022.95" cy="8748.06" r="4.47" gradientTransform="matrix(0, -0.59, 0.63, 0, -5429.25, -2110)" xlink:href="#radial-gradient"/><radialGradient id="radial-gradient-23" cx="-3960.56" cy="8790.31" r="4.47" gradientTransform="matrix(0, -0.59, 0.63, 0, -5445.8, -2117.44)" xlink:href="#radial-gradient"/><radialGradient id="radial-gradient-24" cx="2275.38" cy="1963.69" r="3.57" gradientTransform="translate(-1631 -1011) scale(0.77 0.63)" xlink:href="#radial-gradient"/><radialGradient id="radial-gradient-25" cx="132.99" cy="237.04" r="1.69" gradientTransform="matrix(1, 0, 0, 1, 0, 0)" xlink:href="#radial-gradient"/><radialGradient id="radial-gradient-26" cx="129.24" cy="218.68" r="1.86" gradientTransform="matrix(1, 0, 0, 1, 0, 0)" xlink:href="#radial-gradient"/><radialGradient id="radial-gradient-27" cx="136.3" cy="220.14" r="2.4" gradientTransform="matrix(1, 0, 0, 1, 0, 0)" xlink:href="#radial-gradient"/><radialGradient id="radial-gradient-28" cx="495.41" cy="6432.27" r="2.98" gradientTransform="translate(-206.1 -3827.5) scale(0.68 0.63)" xlink:href="#radial-gradient"/><radialGradient id="Degradado_sin_nombre_129" cx="-509.65" cy="4068.65" r="1.6" gradientTransform="translate(-3458.4 -1779.1) rotate(-67.9)" gradientUnits="userSpaceOnUse"><stop offset="0" stop-color="#fff"/><stop offset="0.38" stop-color="#929292" stop-opacity="0.57"/><stop offset="0.76" stop-color="#2a2a2a" stop-opacity="0.16"/><stop offset="0.93" stop-opacity="0"/></radialGradient><radialGradient id="Degradado_sin_nombre_129-2" cx="-540.52" cy="4075.68" r="1.6" xlink:href="#Degradado_sin_nombre_129"/><radialGradient id="Degradado_sin_nombre_129-3" cx="-543.25" cy="4073.45" r="1.6" xlink:href="#Degradado_sin_nombre_129"/><radialGradient id="radial-gradient-29" cx="-559.2" cy="24731.92" r="1.85" gradientTransform="translate(679.9 -3186) scale(1 0.14)" xlink:href="#radial-gradient"/><radialGradient id="radial-gradient-30" cx="-567.72" cy="24732.15" r="1.85" gradientTransform="translate(685.3 -3178.1) scale(1 0.14)" xlink:href="#radial-gradient"/><radialGradient id="radial-gradient-31" cx="1925.12" cy="5731.4" r="3.07" gradientTransform="translate(-977.8 -3342.6) scale(0.57 0.63)" xlink:href="#radial-gradient"/><radialGradient id="radial-gradient-32" cx="-4071.52" cy="5463.05" r="3.31" gradientTransform="translate(-863.7 -6519.1) rotate(-45)" xlink:href="#radial-gradient-7"/><radialGradient id="radial-gradient-33" cx="-4094.27" cy="5438.22" r="4.77" gradientTransform="matrix(-0.38, 0.93, -0.5, -0.2, 1265.86, 5142.19)" xlink:href="#radial-gradient-7"/><radialGradient id="radial-gradient-34" cx="-4106.28" cy="5427.33" r="4.86" xlink:href="#radial-gradient-7"/><radialGradient id="radial-gradient-35" cx="-4106.64" cy="5420.47" r="6.76" xlink:href="#radial-gradient-7"/><radialGradient id="radial-gradient-36" cx="-4116.37" cy="5428.34" r="6.76" xlink:href="#radial-gradient-7"/><radialGradient id="radial-gradient-37" cx="-4112.52" cy="5439.91" r="6.35" gradientTransform="matrix(-0.71, 0.71, -0.45, -0.45, -365.02, 5605.79)" gradientUnits="userSpaceOnUse"><stop offset="0" stop-color="#fff" stop-opacity="0.8"/><stop offset="0.1" stop-color="#fffcfd" stop-opacity="0.79"/><stop offset="0.18" stop-color="#fef1f7" stop-opacity="0.75"/><stop offset="0.25" stop-color="#fcdfee" stop-opacity="0.69"/><stop offset="0.32" stop-color="#fac6e0" stop-opacity="0.59"/><stop offset="0.38" stop-color="#f7a5ce" stop-opacity="0.48"/><stop offset="0.44" stop-color="#f47db8" stop-opacity="0.33"/><stop offset="0.5" stop-color="#f04e9f" stop-opacity="0.17"/><stop offset="0.55" stop-color="#ec2086" stop-opacity="0"/></radialGradient><radialGradient id="radial-gradient-38" cx="-4079.19" cy="5455.23" r="6.69" gradientTransform="matrix(-0.39, -0.92, 0.92, -0.39, -6496.89, -1400.37)" xlink:href="#radial-gradient-37"/><radialGradient id="radial-gradient-39" cx="-4071" cy="5463.06" r="5.52" gradientTransform="matrix(-0.39, -0.92, 0.92, -0.39, -6496.89, -1400.37)" xlink:href="#radial-gradient-37"/><radialGradient id="radial-gradient-40" cx="-563.32" cy="4089.27" r="4.34" gradientTransform="translate(-444.4 3007.8) rotate(180) scale(1 0.67)" xlink:href="#radial-gradient-7"/><radialGradient id="radial-gradient-41" cx="-4081.35" cy="5462.65" r="5.12" gradientTransform="matrix(-0.39, -0.92, 0.92, -0.39, -6496.89, -1400.37)" xlink:href="#radial-gradient-37"/><radialGradient id="radial-gradient-42" cx="-4098.36" cy="5444.26" r="3.93" gradientTransform="translate(-2441.8 4735.6) rotate(157.1) scale(1 0.58)" xlink:href="#radial-gradient-37"/><radialGradient id="radial-gradient-43" cx="131.65" cy="239.54" r="4.33" gradientTransform="translate(133.3 423.7) rotate(-134.9) scale(1 0.54)" xlink:href="#radial-gradient-7"/><radialGradient id="radial-gradient-44" cx="135.92" cy="217.08" r="0.1" gradientTransform="translate(-59.6 222.3) rotate(-47.5) scale(1 0.65)" xlink:href="#radial-gradient-7"/><radialGradient id="radial-gradient-45" cx="132.3" cy="219.92" r="4.82" gradientTransform="translate(-62.1 221.3) rotate(-47.5) scale(1 0.65)" xlink:href="#radial-gradient-7"/><radialGradient id="radial-gradient-46" cx="26.99" cy="275.81" r="0.01" gradientTransform="matrix(1, 0, 0, 1, 0, 0)" xlink:href="#radial-gradient"/><radialGradient id="radial-gradient-47" cx="-7065.63" cy="-12431.19" r="5.76" gradientTransform="translate(-11977.8 -2531.3) rotate(180) scale(1.7 0.23)" xlink:href="#radial-gradient"/><radialGradient id="radial-gradient-48" cx="36.72" cy="267.62" r="2.06" gradientTransform="matrix(1, 0, 0, 1, 0, 0)" xlink:href="#radial-gradient"/><radialGradient id="radial-gradient-49" cx="41.54" cy="247.88" r="3.41" gradientTransform="matrix(1, 0, 0, 1, 0, 0)" xlink:href="#radial-gradient"/><radialGradient id="radial-gradient-50" cx="-6019.72" cy="-7758.53" r="2.26" gradientTransform="translate(-15703.6 -2695.4) rotate(180) scale(2.62 0.38)" xlink:href="#radial-gradient"/><radialGradient id="radial-gradient-51" cx="-6022.32" cy="-7765.02" r="2.26" gradientTransform="translate(-15705.5 -2703.2) rotate(180) scale(2.62 0.38)" xlink:href="#radial-gradient"/><radialGradient id="radial-gradient-52" cx="-5739.05" cy="-4695.75" r="2.86" gradientTransform="matrix(0.39, 0.92, -0.92, 0.39, -2040.7, 7372.39)" xlink:href="#radial-gradient-7"/><radialGradient id="radial-gradient-53" cx="-9128.28" cy="-17838.53" r="6.13" gradientTransform="translate(-9070.8 -2208.2) rotate(180) scale(1 0.14)" xlink:href="#radial-gradient"/><radialGradient id="radial-gradient-54" cx="-9332.41" cy="14810.24" r="6.13" gradientTransform="matrix(-0.92, 0.39, -0.05, -0.13, -7741.7, 5741.09)" xlink:href="#radial-gradient"/><radialGradient id="radial-gradient-55" cx="-6932.49" cy="-7657.19" r="2.26" gradientTransform="matrix(-0.64, 1.58, -0.31, -0.12, -6750.93, 10249.63)" xlink:href="#radial-gradient"/><radialGradient id="radial-gradient-56" cx="-7027.4" cy="6705.72" r="2.26" gradientTransform="matrix(-1.57, 0.66, -0.13, -0.31, -10125.23, 6996.14)" xlink:href="#radial-gradient"/><radialGradient id="radial-gradient-57" cx="-7202.78" cy="4727.14" r="2.26" gradientTransform="matrix(-1.57, 0.66, -0.13, -0.31, -10632.94, 6490.68)" xlink:href="#radial-gradient"/><radialGradient id="radial-gradient-58" cx="60.21" cy="261.87" r="2.18" gradientTransform="matrix(1, 0, 0, 1, 0, 0)" xlink:href="#radial-gradient"/><radialGradient id="radial-gradient-59" cx="73.85" cy="240.42" r="5.26" gradientTransform="matrix(1, 0, 0, 1, 0, 0)" xlink:href="#radial-gradient"/><radialGradient id="radial-gradient-60" cx="-10858.81" cy="4545.71" r="4.37" gradientTransform="translate(-8342.9 3163.8) rotate(180) scale(0.77 0.63)" xlink:href="#radial-gradient"/><radialGradient id="radial-gradient-61" cx="61.36" cy="258.4" r="3.08" gradientTransform="matrix(1, 0, 0, 1, 0, 0)" xlink:href="#radial-gradient"/><radialGradient id="radial-gradient-62" cx="-10685.7" cy="-2698.22" r="4.37" gradientTransform="translate(-8191.1 -1440.9) rotate(180) scale(0.77 0.63)" xlink:href="#radial-gradient"/><radialGradient id="radial-gradient-63" cx="47.39" cy="239.16" r="3.03" gradientTransform="matrix(1, 0, 0, 1, 0, 0)" xlink:href="#radial-gradient"/><radialGradient id="radial-gradient-64" cx="-6044.61" cy="-7260.33" r="4.37" gradientTransform="matrix(0, 0.77, -0.63, 0, -4543.65, 4912.41)" xlink:href="#radial-gradient"/><radialGradient id="radial-gradient-65" cx="-6788.59" cy="-7282.94" r="5.47" gradientTransform="matrix(0, 0.59, -0.63, 0, -4548, 4262.04)" xlink:href="#radial-gradient"/><radialGradient id="radial-gradient-66" cx="-6712.22" cy="-7231.22" r="5.47" gradientTransform="matrix(0, 0.59, -0.63, 0, -4527.74, 4271.25)" xlink:href="#radial-gradient"/><radialGradient id="radial-gradient-67" cx="-10852.51" cy="4545.71" r="4.37" gradientTransform="translate(-8342.6 3165.7) rotate(180) scale(0.77 0.63)" xlink:href="#radial-gradient"/><radialGradient id="radial-gradient-68" cx="29.03" cy="283.52" r="0.12" gradientTransform="matrix(1, 0, 0, 1, 0, 0)" xlink:href="#radial-gradient"/><radialGradient id="radial-gradient-69" cx="31.42" cy="277" r="1.25" gradientTransform="matrix(1, 0, 0, 1, 0, 0)" xlink:href="#radial-gradient"/><radialGradient id="Degradado_sin_nombre_129-4" cx="-8867.81" cy="-1935.93" r="1.96" gradientTransform="translate(-5079.2 7751.1) rotate(112.1)" xlink:href="#Degradado_sin_nombre_129"/><radialGradient id="Degradado_sin_nombre_129-5" cx="-8871.16" cy="-1938.66" r="1.96" gradientTransform="translate(-5079.2 7751.1) rotate(112.1)" xlink:href="#Degradado_sin_nombre_129"/><radialGradient id="radial-gradient-70" cx="59.42" cy="263.09" r="5.63" gradientTransform="translate(1.8 404.7) rotate(-135) scale(1 0.54)" xlink:href="#radial-gradient-7"/><radialGradient id="radial-gradient-71" cx="66.24" cy="244.31" r="5.95" gradientTransform="matrix(1, 0, 0, 1, 0, 0)" xlink:href="#radial-gradient-7"/><radialGradient id="radial-gradient-72" cx="73.88" cy="240.72" r="8.27" gradientTransform="matrix(1, 0, 0, 1, 0, 0)" xlink:href="#radial-gradient-7"/><radialGradient id="radial-gradient-73" cx="-5757.84" cy="-4714.85" r="8.27" gradientTransform="matrix(0.39, 0.92, -0.92, 0.39, -2040.7, 7372.39)" xlink:href="#radial-gradient-7"/><radialGradient id="radial-gradient-74" cx="-5753.12" cy="-4700.69" r="7.77" gradientTransform="matrix(0.71, -0.71, 0.45, 0.45, 6215.27, -1727.14)" xlink:href="#radial-gradient-37"/><radialGradient id="radial-gradient-75" cx="47.77" cy="288.14" r="8.13" gradientTransform="matrix(1, 0, 0, 1, 0, 0)" xlink:href="#radial-gradient-37"/><radialGradient id="radial-gradient-76" cx="-5714.97" cy="-4672.85" r="6.26" gradientTransform="matrix(0.39, 0.92, -0.92, 0.39, -2040.7, 7372.39)" xlink:href="#radial-gradient-37"/><radialGradient id="radial-gradient-77" cx="-5735.79" cy="-4695.36" r="4.81" gradientTransform="translate(6385.7 516.1) rotate(-22.9) scale(1 0.58)" xlink:href="#radial-gradient-37"/><radialGradient id="radial-gradient-78" cx="30.41" cy="280.65" r="3.19" gradientTransform="translate(-55 408.7) rotate(-134.9) scale(1 0.54)" xlink:href="#radial-gradient-7"/><linearGradient id="linear-gradient-3" x1="25.48" y1="256" x2="140" y2="256" xlink:href="#linear-gradient"/><linearGradient id="linear-gradient-4" x1="-4561.97" y1="-150.75" x2="-4562.09" y2="-139.53" gradientTransform="translate(3.5 4822.1) rotate(90)" gradientUnits="userSpaceOnUse"><stop offset="1" stop-color="#ec2086"/><stop offset="1" stop-color="#802a87"/></linearGradient><linearGradient id="linear-gradient-5" x1="346.52" y1="226.6" x2="349.22" y2="283.3" xlink:href="#linear-gradient"/><linearGradient id="linear-gradient-6" x1="368.47" y1="235.84" x2="478.69" y2="255.27" xlink:href="#linear-gradient"/><linearGradient id="linear-gradient-7" x1="368.51" y1="235.63" x2="478.72" y2="255.05" xlink:href="#linear-gradient"/><linearGradient id="linear-gradient-8" x1="368.97" y1="233" x2="479.19" y2="252.42" xlink:href="#linear-gradient"/><linearGradient id="linear-gradient-9" x1="369.81" y1="228.27" x2="480.02" y2="247.69" xlink:href="#linear-gradient"/><linearGradient id="linear-gradient-10" x1="369.15" y1="231.98" x2="479.37" y2="251.41" xlink:href="#linear-gradient"/><linearGradient id="linear-gradient-11" x1="370.15" y1="226.3" x2="480.37" y2="245.72" xlink:href="#linear-gradient"/><linearGradient id="linear-gradient-12" x1="371.16" y1="220.62" x2="481.37" y2="240.04" xlink:href="#linear-gradient"/><linearGradient id="linear-gradient-13" x1="371.22" y1="220.24" x2="481.43" y2="239.66" xlink:href="#linear-gradient"/><linearGradient id="linear-gradient-14" x1="362.49" y1="269.77" x2="472.71" y2="289.19" xlink:href="#linear-gradient"/><linearGradient id="linear-gradient-15" x1="363.33" y1="265.04" x2="473.54" y2="284.46" xlink:href="#linear-gradient"/><linearGradient id="linear-gradient-16" x1="363.28" y1="265.28" x2="473.5" y2="284.7" xlink:href="#linear-gradient"/><linearGradient id="linear-gradient-17" x1="363.37" y1="264.79" x2="473.58" y2="284.22" xlink:href="#linear-gradient"/><linearGradient id="linear-gradient-18" x1="364.83" y1="256.51" x2="475.04" y2="275.93" xlink:href="#linear-gradient"/><linearGradient id="linear-gradient-19" x1="365.13" y1="254.78" x2="475.35" y2="274.2" xlink:href="#linear-gradient"/><linearGradient id="linear-gradient-20" x1="365.39" y1="253.31" x2="475.61" y2="272.73" xlink:href="#linear-gradient"/><linearGradient id="linear-gradient-21" x1="364.7" y1="257.23" x2="474.92" y2="276.65" xlink:href="#linear-gradient"/><linearGradient id="linear-gradient-22" x1="160.44" y1="260.58" x2="328.57" y2="260.58" xlink:href="#linear-gradient"/><linearGradient id="linear-gradient-23" x1="160.44" y1="260.43" x2="328.57" y2="260.43" xlink:href="#linear-gradient"/><linearGradient id="linear-gradient-24" x1="160.44" y1="260.6" x2="328.57" y2="260.6" xlink:href="#linear-gradient"/><linearGradient id="linear-gradient-25" x1="160.44" y1="256.66" x2="328.57" y2="256.66" xlink:href="#linear-gradient"/><linearGradient id="linear-gradient-26" x1="160.44" y1="257.82" x2="328.57" y2="257.82" xlink:href="#linear-gradient"/><linearGradient id="linear-gradient-27" x1="160.44" y1="259.38" x2="328.57" y2="259.38" xlink:href="#linear-gradient"/><linearGradient id="linear-gradient-28" x1="160.44" y1="265.33" x2="328.57" y2="265.33" xlink:href="#linear-gradient"/><linearGradient id="linear-gradient-29" x1="160.44" y1="260.52" x2="328.57" y2="260.52" xlink:href="#linear-gradient"/><linearGradient id="linear-gradient-31" x1="160.44" y1="261.61" x2="328.57" y2="261.61" gradientUnits="userSpaceOnUse"><stop offset="0" stop-color="#208195"/><stop offset="0.51" stop-color="#217f95"/><stop offset="0.69" stop-color="#257893"/><stop offset="0.82" stop-color="#2c6d90"/><stop offset="0.92" stop-color="#365c8c"/><stop offset="1" stop-color="#414a88"/></linearGradient><linearGradient id="linear-gradient-32" x1="160.44" y1="260.13" x2="328.57" y2="260.13" xlink:href="#linear-gradient"/><linearGradient id="linear-gradient-33" x1="160.44" y1="260.13" x2="328.57" y2="260.13" xlink:href="#linear-gradient"/><linearGradient id="linear-gradient-34" x1="160.44" y1="241.32" x2="328.57" y2="241.32" xlink:href="#linear-gradient"/><linearGradient id="linear-gradient-35" x1="160.44" y1="260.57" x2="328.57" y2="260.57" xlink:href="#linear-gradient"/></defs><g class="cls-1"><g id="BACKGROUND"><path class="cls-2" d="M67.6,248.8l-1.3,4h0c-.5,1.4-1,3.1-1.6,5h0c-.3.8-.5,1.6-.8,2.4h0a10.9,10.9,0,0,0-.5,1.7l-.3.7h0c-.1.2-.1.4-.2.6L61.7,267l-4.4,13.8h-.1c-.7,2.3-1.3,4.2-1.9,5.8a7.2,7.2,0,0,1-3,3.9h-.1a15.1,15.1,0,0,1-2.9,1.3h-.2l-2.5.7h-.1l-1.1.2h-.2a31.9,31.9,0,0,1-5.4.5h-.1a61.5,61.5,0,0,1-7.6-.2h-.2l-4-.4h-.1l-2-.3.7-1.8h0l.8-2.3h0l1.7-4.7h0v-.4h0V283l1.5-4.2h0l.3-1.1,1-2.7h0l1.6-4.7h.1l.3-.9.4-1.2v-.2l.4-1L39.7,253h0l3.7-10.4h0l.9-2.6,1-2.8h0l.6-1.6,3.9-11h0v-.3l.7-1.7h0l3.1,4.7h.1l1.9,3,.2.3.4.6h.1v.2l.4.6,1,1.5h0l1.1,1.7H59l.6.8h0l1.1,1.9,2.4,3.5h0l1.1,1.6.4.7h.1l.5.8,1.7,2.6v.2h.1Z"/><path class="cls-3" d="M145.8,217.8s-3.6,1.9-6.8,8.4h-.1a38.5,38.5,0,0,0-2.2,5.6L135,237h0l-.4,1.1h0v.2h0l-.2.4-.3.9h0l-.5,1.7h0l-1.6,4.9-.4,1.1h0l-9.3,28.8-.6,2h0l-.4.9-1.2,4h0v.2h0l-.6,1.9h0l-.2.4v-.2l-.9-1.3v-.2h0l-.4-.5h0l-1.1-1.5-.4-.6-.4-.5h0l-.6-.8h-.1l-.6-.9h-.1l-1.4-2h-.1l-1.3-1.8v-.2l-.3-.4h-.1l-.3-.4h0l-.8-1.1h-.1l-.7-1.1h-.1l-.4-.6h-.1l-.8-1.1-.8-1.1h-.1l-.6-.9v-.2h-.1l-.2-.3-.3-.4-.2-.3h0l-.3-.4H105l-.4-.5-.8-1.2h-.1l-.3-.4-1.2-1.8h-.1l-.4-.5h0l-1.6-2.2c.5-2,1.1-3.9,1.6-5.7.1-.2.1-.4.2-.6,4.6-15.6,8.5-26.6,10.4-29.5a10.5,10.5,0,0,1,2.1-2.4h0l.7-.5,1-.6a.1.1,0,0,1,.1-.1l.9-.4h.1l.6-.2.5-.2h.9l1.1-.2h25.5Z"/><g class="cls-4"><path class="cls-5" d="M103.6,260.1h0l1.2-2.8.4-.2c0-.2,0-.4-.2-.5s-.4.1-.4.2,0,.4.1.4l-1.1,2.9-5.3,2.2h0L92,277.7h.1l6.3-15.4Z"/><path class="cls-5" d="M114.5,236c0,.2.2.2.4.2l1.4,3.3-3.2,7.8-1.9.8-.3-.2-.5-1,2.5-6.1c.2.1.3,0,.4-.2s0-.3-.2-.4-.3,0-.4.2,0,.3.1.4l-2.4,6.1c-.1,0-.1.1,0,.1l.4,1c-.2.1-.2.2-.2.4l-2.8,1.2h0l-.3.7-.4.2c0,.2,0,.4.2.5l.4-.2c.1-.2,0-.4-.1-.4l.3-.8,2.8-1.1h.4a.5.5,0,0,0,.2-.4l1.8-.8h.1l3.1-7.9h0l-1.4-3.3c.2-.1.2-.3.2-.5a.4.4,0,0,0-.5-.1C114.5,235.6,114.4,235.8,114.5,236Z"/><path class="cls-5" d="M117.5,222.4h0l-.6,1.6-1.9,4.6-.5,1.2c.2.1.2.3.2.5a.4.4,0,0,1-.5.1c-.1,0-.2-.2-.1-.4s.2-.2.3-.2l.5-1.1,1.9-4.8.6-1.5-.7-1.7-.6-1.4a.1.1,0,0,1,.1-.1l.6,1.4h0Z"/><path class="cls-5" d="M115.5,223.1c0,.2-.2.3-.4.2s-.2-.2-.2-.4.2-.2.4-.2l-.9-2.2h0l1,2.3h0C115.5,222.8,115.6,223,115.5,223.1Z"/><path class="cls-5" d="M125.4,235l-3.9,9.5.7,1.6c.1-.1.3,0,.4.2l-.2.4a.4.4,0,0,1-.5-.2.4.4,0,0,1,.2-.4l-.7-1.5h0l3.9-9.5v-.3l-.3-.6v-.3l-1.4-3.3H123l-2.7,1.1-.4.2-.4.2-.5.2-2.7,1.2c0,.1-.1.3-.2.3H116l1.1,2.4.2.6.8,1.8h0l-.8,1.9c.1.1.2.3.1.4s-.2.3-.4.2-.3-.2-.2-.4.2-.2.4-.2l.8-1.9-.8-1.7-.2-.7-1.1-2.4-.3-.2v-.2l-2.6-1-.8-.4a.6.6,0,0,1-.4-.6h.1l1.1-2.7a.4.4,0,0,1-.2-.4.4.4,0,0,1,.5-.2c.1.1.2.3.1.4s-.2.3-.4.2l-.7,1.9-.3.8a.4.4,0,0,0,.2.6l.9.4,2.5,1,.2-.2c.2,0,.3,0,.4.2L119,232l.6-.3h.2l.5-.2,2.5-1h.1a.8.8,0,0,1,.2-.4h.1l-.5-1.1-1.2-2.7-.3-.7-.3-.8-.2-.4-.4-1h-.2l-.3.7v.4l-.2.4-.4.9-1.4,3.4-.3.8c.1.1.2.3.1.4a.2.2,0,0,1-.2.2H117a.4.4,0,0,1-.1-.3c.1-.2.2-.2.4-.2l.3-.8,1.4-3.4.4-1,.2-.4v-.4l.3-.7c-.1-.1-.2-.2-.1-.4v-.2l-.4-1-.3-.7-.8-1.8-.2-.7h0l.3.6.8,1.8.3.7.4,1.1h.2a.4.4,0,0,1,.2.5h-.1l.4,1.1.2.4.3.8.3.7,1.2,2.7.5,1.1h.3a.6.6,0,0,1-.1.4h0l1.4,3.2v.4l.2.5.2.4Z"/><path class="cls-5" d="M114.7,245.7a.4.4,0,0,0,.2.4l-2.4,5.7h.1l1.8,4.5-.2.5a.5.5,0,0,0-.4.2c0,.2,0,.4.2.5s.4,0,.4-.2,0-.3-.1-.4l.2-.6h0l-1.9-4.4,2.4-5.8c.1.1.3,0,.4-.2l-.2-.4A.4.4,0,0,0,114.7,245.7Z"/><path class="cls-5" d="M106.8,275.4l5-12.2.4-.2c0-.2,0-.4-.2-.4a.4.4,0,0,0-.5.1c0,.2,0,.4.2.5l-5,12.2a.5.5,0,0,1-.6.2l-3.2-1.2a.5.5,0,0,0-.7.3l-2.1,5c-.1-.1-.3,0-.3.2s0,.3.1.4a.4.4,0,0,0,.5-.2c0-.2,0-.3-.2-.4l2-5a.6.6,0,0,1,.7-.3l3.1,1.3C106.4,275.8,106.7,275.7,106.8,275.4Z"/><path class="cls-5" d="M134.6,227.5l-3.8,9.3-1.5,3.6h-.1a.8.8,0,0,1-1,.4l-.8-.3c-.1.1-.2.2-.4.1a.4.4,0,0,1-.2-.4.4.4,0,0,1,.5-.2.5.5,0,0,1,.2.4l.7.3a.8.8,0,0,0,1-.4h0l1.5-3.6,3.8-9.3V227l-2.2-5.2-.4-.8v-.6l1.1-2.6h.1l-1.1,2.7v.4l.4.9,2.1,5.1A1.3,1.3,0,0,1,134.6,227.5Z"/><path class="cls-5" d="M121.1,238.8l-6,15c-.2-.1-.4,0-.4.2s0,.3.1.4a.4.4,0,0,0,.5-.2.4.4,0,0,0-.2-.4l6.1-14.9a.9.9,0,0,1,1-.5h0a.8.8,0,0,0,.2.4l.5-.2a.8.8,0,0,0-.2-.5c-.2,0-.3,0-.4.2h-.1A.8.8,0,0,0,121.1,238.8Z"/><path class="cls-5" d="M106.9,268.7l5.1-12.5.4-.2a.8.8,0,0,0-.2-.5c-.2,0-.4,0-.5.2s0,.3.2.4l-5.1,12.6c-.1.3-4.6,2-7.5,3.1h0l-3.1,7.5h.1l3.1-7.6C100.2,271.6,106.7,269.2,106.9,268.7Z"/><path class="cls-5" d="M126.9,250.5c.1.2.2.2.4.2l-8.5,20.9a.6.6,0,0,0,.3.8l2.4.9a.6.6,0,0,1,.2.7l-1.2,3a.2.2,0,0,0-.3.1.4.4,0,0,0,.1.5.4.4,0,0,0,.5-.2c0-.2,0-.3-.2-.4l1.2-3c.2-.3,0-.6-.3-.8l-2.3-.9a.5.5,0,0,1-.3-.7l8.5-20.9h0a.4.4,0,0,0,.1-.5c0-.1-.2-.2-.4-.1S126.8,250.3,126.9,250.5Z"/><path class="cls-5" d="M117.6,283.5c-.1.2,0,.3.1.4l-1.5,3.7h.1l1.5-3.6a.5.5,0,0,0,.4-.2.4.4,0,0,0-.2-.5C117.8,283.3,117.6,283.4,117.6,283.5Z"/><path class="cls-5" d="M136.7,228l-1,2.7-1.9,4.6-.7,1.6.2.2v.2c-.1.1-.3.2-.4.1s-.3-.2-.2-.4v-.2h.3l.6-1.5,1.9-4.7,1-2.6a.6.6,0,0,0,0-.8l-2.3-5.5v-.4a1.3,1.3,0,0,1,.1-.6l1.2-2.9h.1l-1.2,3a.9.9,0,0,0,0,.8h0l2.3,5.5A1,1,0,0,1,136.7,228Z"/><path class="cls-5" d="M114.2,267.1Z"/><path class="cls-5" d="M120,250.2a1.2,1.2,0,0,0-.7.7l-5.9,14.4a1.4,1.4,0,0,0,0,.9l.3.7c-.1.1-.2.3-.1.4s.3.3.4.2.3-.3.2-.4-.2-.3-.4-.2l-.3-.7a1.1,1.1,0,0,1,0-.8l5.9-14.5a.9.9,0,0,1,.6-.6l8.8-3.7a1.6,1.6,0,0,0,.7-.7l1.3-3.3.4-.2a.4.4,0,0,0-.2-.5.4.4,0,0,0-.4.2c-.1.2,0,.3.1.4l-1.3,3.4a1.2,1.2,0,0,1-.6.6Z"/><path class="cls-5" d="M117.6,274l-.5-.3a1,1,0,0,1-.6-.5v-.3c.1-.1.2-.3.1-.4s-.3-.3-.4-.2-.3.3-.2.4.2.3.4.2v.3a.9.9,0,0,0,.6.6l.6.3a.7.7,0,0,1,.4,1l-4.6,11.3h.1l4.6-11.3A.9.9,0,0,0,117.6,274Z"/><path class="cls-5" d="M139.5,221.1c-.1.2-.3.3-.4.2H139v.3l-.8,2a.4.4,0,0,0,0,.5l.9,2.1h-.1l-.9-2.1a.9.9,0,0,1,0-.7l.7-1.7.2-.5c0-.1-.1-.2-.1-.4l-2.1-.8c-.1.1-.3.2-.4.1s-.3-.3-.2-.4.2-.3.4-.2.2.2.2.4l2.2.8c0-.1.1-.1.3-.1l.2-.6h0l.7-1.7h.1l-.8,1.9v.4h0A.4.4,0,0,1,139.5,221.1Z"/><path class="cls-5" d="M134.6,238.4l-.2.4-.3.9h0l-.7,1.9-2,4.8-.2.5c0,.2-.2.3-.4.4l-7.1,3h0c.1.1,0,.3-.1.4h-.1l-3.6,8.8a.4.4,0,0,1,.2.4.4.4,0,0,1-.5.2c-.1-.1-.2-.3-.1-.4s.2-.3.4-.2l3.5-8.8h-.3l-.5.2h0l-1.6.6-4,10.1,3.5,1.4c0-.1.2-.2.4-.1h0l3.8-9.4c-.1-.1-.2-.3-.1-.4s.3-.3.4-.2.3.2.2.4-.2.2-.4.2l-3.8,9.4a.6.6,0,0,1,.1.4l-.3.2-2.2,5.3-.7,1.8v.3c.1,0,.2.2.1.4l-.4.2a.4.4,0,0,1-.2-.5l.4-.2v-.3l.8-1.9,2.1-5.1h-.1a.8.8,0,0,1-.2-.4l-3.5-1.5h0l4.1-10.1h0l1.6-.7.5-.2c-.1-.2,0-.4.2-.4s.3,0,.4.1l7.1-3c.1-.1.3-.2.3-.4l.2-.4,1.3-3.1h0l.2-.6h0l.4-1,1.2-2.9Z"/><path class="cls-5" d="M109.4,278.3l3.2-1.3.5-.5,4.7-11.7.4-.2c.1-.2,0-.4-.2-.4s-.3,0-.4.1,0,.4.2.5L113,276.5a.8.8,0,0,1-.4.4l-3.2,1.4a.4.4,0,0,0-.4.4l-2.1,5.1h.1l2.1-5.1Z"/><path class="cls-5" d="M106.4,279.2l-.5-1.1a.8.8,0,0,0,.2-.4l4.4-1.9h.1l1.7-4.3c.1.1.3,0,.4-.2a.4.4,0,0,0-.2-.4c-.2-.1-.4,0-.4.2s0,.3.1.4l-1.7,4.2-4.5,1.9c-.1-.1-.2-.2-.4-.1a.1.1,0,0,0-.1.1l-1.7-.7c-.1,0-.1,0-.1.1l-1.9,4.7h.1l1.9-4.7,1.6.7v.2c.1.2.3.3.4.2l.5,1.1-1.5,3.7h.1l1.5-3.8Z"/><path class="cls-5" d="M98.2,270.1l6.1-2.6a2.4,2.4,0,0,0,1-1l4.9-12.1a.8.8,0,0,0-.5-1.1l-3.7-1.5a.9.9,0,0,1-.4-1l6.4-15.6c.1.1.3,0,.3-.2s0-.3-.1-.4a.4.4,0,0,0-.5.2.4.4,0,0,0,.2.4l-6.4,15.6a1,1,0,0,0,.5,1.1l3.7,1.5a.7.7,0,0,1,.4,1l-4.9,12a1.7,1.7,0,0,1-1,1L98.1,270a2.4,2.4,0,0,0-1,1l-3,7.6h0l3.1-7.5A1.7,1.7,0,0,1,98.2,270.1Z"/><path class="cls-5" d="M118.3,234.6c.1.2.3.2.5.2l.2-.4,2.7-1.2c.1.1.3.2.4.1s.3-.2.2-.4a.4.4,0,0,0-.4-.2c-.2.1-.3.3-.2.4l-2.8,1.2c-.1-.2-.2-.2-.4-.1S118.3,234.4,118.3,234.6Z"/><path class="cls-5" d="M118.5,234.2Z"/><path class="cls-5" d="M114.5,278.9h0l1.1-2.8c.2.1.3,0,.4-.2s0-.3-.2-.4-.4,0-.4.2,0,.3.1.4l-1.1,2.7-2.4,1h-.1l-2,5.1h0l2.1-5.1Z"/><path class="cls-5" d="M99.8,265.9Z"/><path class="cls-5" d="M99.9,265.4c0-.2-.2-.2-.4-.2a.8.8,0,0,0-.2.5.4.4,0,0,0,.5.1h0c.1,0,.2-.2.2-.3l4-1.8h.1l3.2-8.1a.6.6,0,0,0-.4-.9l-4.2-1.7c-.3-.2-.5-.5-.3-.8l5.5-13.6,1-.4a.4.4,0,0,0,.5.1c.1-.1.2-.3.1-.4s-.2-.3-.4-.2-.2.2-.2.4l-1.1.4h0l-5.5,13.5a.7.7,0,0,0,.4,1l4.2,1.7a.6.6,0,0,1,.3.8l-3.2,8.1Z"/><path class="cls-5" d="M131.2,224.5h.1a.4.4,0,0,0-.2-.5H131l-1.3-3h.2c.1-.2,0-.4-.2-.4h0l.3-.7h0l.6-1.7h-.1l-.7,1.7-.2.7h-.3l-1.3-.6-.4-.8h0l-.5-1.2H127l.4,1.1.5,1h0l1.4.6c-.1.1,0,.3.2.4h.1l1.3,3-.2.2-5.9-2.4-1.7-3.9H123l1.7,3.8h0l6,2.5c-.1.1,0,.3.2.4h.2l1.4,3.2-2.7,6.5h0l-.2.6-2.7,1.2h-.1l-.3.8-2.4,5.9h0l.9,2a.4.4,0,0,0-.2.4.4.4,0,0,0,.5.2c.1-.1.2-.3.1-.4s-.2-.3-.3-.2l-.9-2.1,2.4-5.9.3-.8,2.7-1.1h0l.3-.7,2.7-6.5h0Zm-3.7.9h0l-4.4-1.9h-.4l-1.9-4.6h0l-.4-.9h-.1l.4.9h0l1.1,2.5.4,1.1h0l.5,1h.3l4.5,1.8,1.8,4.5-.7.3-2,.8-.6.3c-.1-.1-.3-.2-.4-.1s-.3.2-.2.4a.4.4,0,0,0,.4.2c.2-.1.3-.3.2-.4l.7-.3,1.9-.8h0l.8-.4h.1Z"/></g><circle class="cls-6" cx="120.5" cy="277.2" r="2.1"/><ellipse class="cls-7" cx="108.5" cy="243.8" rx="9.1" ry="1.2" transform="translate(-158.3 252.7) rotate(-67.9)"/><path class="cls-8" d="M132,246.3l-.4,1.1h0a22.9,22.9,0,0,1-3.6,1.9,33.2,33.2,0,0,1-4.5,1.5h-.9c-.2-.4,1.9-1.7,4.7-2.9l4-1.4h.7Z"/><ellipse class="cls-9" cx="121.6" cy="264.8" rx="5.5" ry="0.8" transform="translate(-169.5 277.9) rotate(-67.9)"/><ellipse class="cls-10" cx="115.6" cy="252.5" rx="5.5" ry="0.8" transform="translate(-161.9 264.7) rotate(-67.9)"/><ellipse class="cls-11" cx="111.6" cy="256.9" rx="5.5" ry="0.8" transform="translate(-168.4 263.8) rotate(-67.9)"/><circle class="cls-12" cx="114.1" cy="257.3" r="1.5"/><ellipse class="cls-13" cx="108" cy="281.3" rx="5.7" ry="0.8" transform="translate(-193.2 275.6) rotate(-67.9)"/><path class="cls-14" d="M106.1,266.6c.1.4-2.1,1.7-5,2.9s-5.4,1.9-5.6,1.5,2.1-1.7,5-2.9S105.9,266.2,106.1,266.6Z"/><path class="cls-15" d="M120.1,249.2c.3.1,0,1.7-.7,3.6s-1.7,3.2-2,3-.1-1.7.7-3.6S119.7,249,120.1,249.2Z"/><path class="cls-16" d="M131.5,234.1c.1.4-1.2,1.3-3,2s-3.5,1.2-3.6.8,1.2-1.3,3-2S131.3,233.7,131.5,234.1Z"/><path class="cls-17" d="M112.5,247.7c.1.3-1.2,1.2-3,2s-3.5,1.1-3.6.8,1.2-1.3,3-2.1S112.3,247.3,112.5,247.7Z"/><path class="cls-18" d="M101.5,252.6c.2-.4,1.8-.1,3.6.7s3.2,1.6,3.1,2-1.8,0-3.6-.7S101.4,252.9,101.5,252.6Z"/><ellipse class="cls-19" cx="133.5" cy="235.7" rx="5.5" ry="0.8" transform="translate(-135.1 270.9) rotate(-67.9)"/><path class="cls-20" d="M121.6,226.1h-.1a1.5,1.5,0,0,1-.7-.6l-.5-.7-.3-.5-.2-.4h-.1c-.2-.5-.5-1-.7-1.6s-.1-.1-.1-.2l-.3-.7a13.6,13.6,0,0,1-.6-2c-.1-.3-.1-.6-.2-.8l.5-.2h.5c.1.2.3.3.4.6a14.5,14.5,0,0,1,1,1.8l.4.8h0a11.9,11.9,0,0,1,.8,2.2h0l.2.5c0,.4.1.7.1.9h0C121.8,225.6,121.8,226,121.6,226.1Z"/><ellipse class="cls-21" cx="94.5" cy="271.6" rx="6.9" ry="1.3" transform="translate(-192.7 257) rotate(-67.9)"/><ellipse class="cls-22" cx="122" cy="233" rx="3.1" ry="2.6" transform="translate(-81.1 65.9) rotate(-22.9)"/><ellipse class="cls-23" cx="104.7" cy="256.9" rx="3.1" ry="2.6" transform="translate(-172.7 257.3) rotate(-67.9)"/><ellipse class="cls-24" cx="107.4" cy="250.5" rx="3.1" ry="2.6" transform="translate(-165.1 255.8) rotate(-67.9)"/><ellipse class="cls-25" cx="116.2" cy="272.6" rx="2.6" ry="3.1" transform="translate(-97 66.8) rotate(-22.9)"/><ellipse class="cls-26" cx="114" cy="267.1" rx="2.6" ry="3.1" transform="translate(-95 65.4) rotate(-22.9)"/><ellipse class="cls-27" cx="105.8" cy="277.8" rx="3.2" ry="3" transform="translate(-99.8 63.1) rotate(-22.9)"/><ellipse class="cls-28" cx="116" cy="233.3" rx="3.2" ry="3" transform="translate(-81.7 63.6) rotate(-22.9)"/><ellipse class="cls-29" cx="125.7" cy="231.5" rx="3.1" ry="2.6" transform="translate(-80.2 67.2) rotate(-22.9)"/><path class="cls-30" d="M135,237h0l-.4,1.1h0l-.3.3a1.5,1.5,0,0,1-1.3.4h-.7l-.6-.4a1.8,1.8,0,0,1-.6-1.7.6.6,0,0,1,.1-.4,1.8,1.8,0,0,1,1.7-1.1h.9l.6.5A1.6,1.6,0,0,1,135,237Z"/><path class="cls-31" d="M132.1,217.8v.3a2.6,2.6,0,0,1-2.1,1.4h-1l-.8-.2-.6-.3h-.2a5.2,5.2,0,0,1-1-1.1Z"/><path class="cls-32" d="M139.4,220.1h0v.2c0,.2,0,.3-.1.4h0v.3l-.2.3-.2.3-.2.2a3.2,3.2,0,0,1-3.3.4l-1-.6h-.1l-.2-.2a2.7,2.7,0,0,1-.7-2.7l.6-.8h4A2.8,2.8,0,0,1,139.4,220.1Z"/><ellipse class="cls-33" cx="130.7" cy="242.2" rx="2.3" ry="2.1" transform="translate(-142.8 272.3) rotate(-67.9)"/><circle class="cls-34" cx="120.2" cy="222.8" r="1.5"/><circle class="cls-35" cx="115.1" cy="254.1" r="1.5"/><circle class="cls-36" cx="112" cy="255.8" r="1.5"/><ellipse class="cls-37" cx="120.8" cy="276.5" rx="2.1" ry="0.3" transform="translate(-180.9 284.4) rotate(-67.9)"/><ellipse class="cls-38" cx="117.6" cy="284.4" rx="2.1" ry="0.3" transform="translate(-190.2 286.4) rotate(-67.9)"/><ellipse class="cls-39" cx="117.9" cy="283.6" rx="2" ry="2.2" transform="translate(-189.3 286.2) rotate(-67.9)"/><circle class="cls-40" cx="120.1" cy="222.7" r="2.1" transform="translate(-131.4 250.3) rotate(-67.9)"/><circle class="cls-41" cx="106" cy="253.3" r="3.9"/><circle class="cls-42" cx="100.7" cy="268.6" r="3.1"/><circle class="cls-43" cx="94.4" cy="271.6" r="4.3"/><circle class="cls-44" cx="105.5" cy="277.5" r="4.3"/><circle class="cls-45" cx="114.7" cy="269.5" r="4" transform="translate(-178.1 274.4) rotate(-67.9)"/><circle class="cls-46" cx="115.8" cy="232.8" r="4.2"/><circle class="cls-47" cx="119.8" cy="222.2" r="3.5"/><ellipse class="cls-48" cx="119" cy="280.2" rx="4" ry="2.5" transform="translate(-185.4 285.1) rotate(-67.9)"/><circle class="cls-49" cx="123.5" cy="231.9" r="3.2"/><circle class="cls-50" cx="113.2" cy="254.7" r="2.9"/><path class="cls-51" d="M134.4,238.8l-.3.9h0l-.5,1.7h0l-.2.2h-.2l-.3.2h-.1a3,3,0,0,1-1.6.2l-.4-.2a2.4,2.4,0,0,1-1.5-1.3h-.1a2.8,2.8,0,0,1,1.5-3.6h2.1l.5.3.4.3.6.9v.2a.4.4,0,0,1,.1.3Z"/><path class="cls-52" d="M136,217.1h0Z"/><path class="cls-53" d="M136.1,217.8a3.6,3.6,0,0,1-1.8,3.4h-.2l-.3.2a3.5,3.5,0,0,1-1.4.3h-.1a4,4,0,0,1-2.4-1l-.5-.5a2,2,0,0,1-.4-.8h0a2.6,2.6,0,0,1-.3-1.7Z"/><path class="cls-5" d="M25,280.6v-.1Z"/><path class="cls-5" d="M27,275.8Z"/><path class="cls-54" d="M27,275.8Z"/><path class="cls-5" d="M62.8,254.4l3.5-1.5h0l-3.5,1.5v.3L61.4,258c.2.1.2.2.2.4h0a.4.4,0,0,1-.5.2.5.5,0,0,1-.3-.5h.1c0-.1.2-.2.4-.2l1.3-3.2v-.3Z"/><path class="cls-5" d="M76.9,232.9l-1,2.6L72,245.2l-1.3,3h-.1l1.2-3,4-9.6,1-2.7Z"/><path class="cls-5" d="M49.5,284a.5.5,0,0,0-.5-.3l-1.7-4,3.9-9.6,2.2-1a.5.5,0,0,0,.5.3l.5,1.2-3,7.4a.5.5,0,0,0-.5.3.4.4,0,0,0,.2.5c.2.1.5,0,.5-.2a.4.4,0,0,0-.1-.5l3-7.5h0l-.5-1.3a.8.8,0,0,0,.2-.5l3.4-1.4h0l.4-.9a.4.4,0,0,0,.5-.2.5.5,0,0,0-.3-.5.4.4,0,0,0-.3.7l-.4.9-3.4,1.4a.4.4,0,0,0-.5-.1c-.2.1-.3.3-.2.4l-2.3,1h0l-3.9,9.7h0l1.7,4.1a.4.4,0,0,0-.2.5.4.4,0,0,0,.6.2A.4.4,0,0,0,49.5,284Z"/><path class="cls-5" d="M50,291.3a.5.5,0,0,1-.5.3l-.2.5h-.2l.3-.7a.4.4,0,0,1,.3-.7C50,290.9,50.1,291.1,50,291.3Z"/><path class="cls-5" d="M46.4,290.9a.6.6,0,0,1,.1.4.5.5,0,0,1-.5.3l-.4.9-.2.6h-.2l.3-.6.4-1a.4.4,0,0,1-.2-.5l.3-.2h.4Z"/><path class="cls-5" d="M52.7,289.8h-.1l-.3.8a.1.1,0,0,0-.1.1l.3-.9c.1-.4,0-.7-.3-.8l-1-.5h0L48,287.4a.2.2,0,0,1-.2.2.4.4,0,0,1-.5-.2L44,288.9l-.8.3h-.3l-.6.3-3.1,1.3h-.1a.8.8,0,0,1-.2.5h-.1l.6,1.4h0l.4.8h-.2l-.3-.8h0l-.6-1.4h-.2l-.2-.2a.7.7,0,0,1,.1-.5h0l-1.7-3.9-.2-.5h0l-.2-.6h0l-.2-.4h0l4.7-11.7-.8-1.9c-.2.1-.4,0-.4-.2s0-.5.2-.5a.4.4,0,1,1,.3.7l.9,1.9h0l-4.8,11.7.2.4.3.7h0v.3h0l1.7,4.1H39l3.3-1.4h0l.6-.2.4-.2h0l.6-.2h0l3.4-1.5c-.1-.2,0-.4.2-.4h.1l-1.3-2.9h0l-.3-.7-.9-2.1h0l.9-2.4c-.2-.1-.2-.3-.2-.5a.5.5,0,0,1,.6-.2.4.4,0,0,1,.2.6l-.5.2-.9,2.3.9,2.1.3.8h0l1.3,3a.3.3,0,0,1,.3.3c.1,0,.1.1.1.2l3.1,1.2h0l1,.4A.9.9,0,0,1,52.7,289.8Z"/><path class="cls-5" d="M49.1,272.1a.4.4,0,0,0-.1-.5l2.8-7h0l-2.3-5.4.3-.8a.4.4,0,0,0,.5-.2c0-.2-.1-.5-.3-.5a.4.4,0,1,0-.3.7l-.3.7h0l2.3,5.5-2.8,7a.4.4,0,0,0-.5.2c-.1.2,0,.5.2.5A.4.4,0,0,0,49.1,272.1Z"/><path class="cls-5" d="M58.8,235.8l-6,14.9a.4.4,0,0,0-.5.2.5.5,0,0,0,.2.6c.2,0,.5-.1.5-.3a.4.4,0,0,0-.1-.5l6-14.9c.2-.3.5-.5.8-.3l3.9,1.5a.6.6,0,0,0,.9-.4l2.5-6.1a.4.4,0,0,0,.3-.7.4.4,0,0,0-.6.2c0,.2,0,.4.2.5l-2.5,6.1a.6.6,0,0,1-.8.3l-3.8-1.5A.7.7,0,0,0,58.8,235.8Z"/><path class="cls-5" d="M34.3,278.7c0,.2-.3.3-.5.3a.4.4,0,0,1-.2-.5l-1-.4a1,1,0,0,0-1.2.4h0L29.7,283h-.1l-3.1,7.8.8-2.3h0l2.2-5.4,1.8-4.4c0-.1,0-.1.1-.2a1.1,1.1,0,0,1,1.3-.4l.9.4a.4.4,0,0,1,.7.3Z"/><path class="cls-5" d="M41.3,280.5l7.5-18.3c.1.1.3,0,.4-.2s0-.5-.2-.5a.4.4,0,0,0-.5.2.4.4,0,0,0,.1.5l-7.4,18.3a1,1,0,0,1-1.2.5h0a.5.5,0,0,0-.3-.5.4.4,0,0,0-.5.2c-.1.2,0,.5.2.5a.4.4,0,0,0,.5-.1H40A1,1,0,0,0,41.3,280.5Z"/><path class="cls-5" d="M58.8,243.9l-6.3,15.4c-.2-.1-.4,0-.4.2a.5.5,0,0,0,.2.6c.2.1.4,0,.5-.3s0-.4-.2-.5L58.9,244c.1-.4,5.5-2.5,9.1-3.9h.1l3.7-9.3h-.1L68,240C66.9,240.4,59,243.4,58.8,243.9Z"/><path class="cls-5" d="M49.8,246Z"/><path class="cls-5" d="M50.8,247.7a.8.8,0,0,1-.1.4l-.6,1.5L46,259.8l-2.5,6a1.8,1.8,0,0,1-.7.8h-.3l-8.9,3.7h.1l8.8-3.8h.2a1.4,1.4,0,0,0,.7-.8l2.5-6L50,249.6l.6-1.6a.4.4,0,0,0,.1-.3,1.7,1.7,0,0,0-.1-.7l-.3-.8a.5.5,0,0,1-.5-.3h0a.4.4,0,0,1,.2-.5c.2-.1.5,0,.5.2a.4.4,0,0,1-.1.5l.3.8A2.2,2.2,0,0,1,50.8,247.7Z"/><path class="cls-5" d="M47.5,239.5a.4.4,0,0,1-.3-.7v-.2H47a1.2,1.2,0,0,0-.7-.7l-.7-.3-.3-.2h0l.4.2.6.3a1.1,1.1,0,0,1,.8.7v.4c.2-.1.4,0,.4.2S47.7,239.5,47.5,239.5Z"/><path class="cls-5" d="M46.5,252.8l-5,12.3h0l-1.9.8-.7.3c.1.2,0,.4-.2.4a.4.4,0,0,1-.5-.1l-3.8,1.6V268l3.6-1.5h0a.8.8,0,0,1,.2-.5h.1l4.4-10.8c-.2-.1-.3-.4-.2-.5a.5.5,0,0,1,.5-.3.7.7,0,0,1,.3.6.4.4,0,0,1-.5.2l-4.4,10.8h0c.1-.1.3,0,.4.2l.6-.3h0l1.9-.8,5-12.3-4.3-1.7a.4.4,0,0,1-.5.1h0l-4.7,11.5a.4.4,0,1,1-.3.7.3.3,0,0,1-.3-.5.4.4,0,0,1,.5-.2l4.7-11.6c-.1-.1-.2-.3-.1-.4s.2-.2.4-.3l2.6-6.5.9-2.2h0v-.3a.4.4,0,0,1-.1-.5c0-.2.3-.3.5-.2a.4.4,0,0,1,.2.5.5.5,0,0,1-.5.3v.3h0l-1,2.3-2.5,6.4h0c.2,0,.3.3.3.4l4.3,1.8S46.6,252.8,46.5,252.8Z"/><path class="cls-5" d="M55.6,232.1l-3.9,1.7a1.2,1.2,0,0,0-.5.5l-5.9,14.4c-.2,0-.4.1-.4.3a.4.4,0,1,0,.5-.2l5.9-14.4a.8.8,0,0,1,.5-.5l3.9-1.6a1,1,0,0,0,.5-.6l2.5-6.2h-.1l-2.5,6.3A.7.7,0,0,1,55.6,232.1Z"/><path class="cls-5" d="M59.4,231.1l.5,1.4c-.1.1-.2.3-.1.4l-5.5,2.4h-.1l-2.1,5.2c-.2-.1-.4,0-.4.2a.5.5,0,0,0,.2.6.5.5,0,0,0,.5-.3.4.4,0,0,0-.2-.5l2.1-5.1,5.5-2.4a.4.4,0,0,0,.5.2l.2-.2,2.1.9h0L65,228h-.1l-2.4,5.7-2-.8c.1-.1.1-.2,0-.2a.5.5,0,0,0-.4-.3l-.6-1.3,1.8-4.6h-.1l-1.8,4.6Z"/><path class="cls-5" d="M69.4,242.3,62,245.4a2.1,2.1,0,0,0-1.3,1.3l-6,14.7a1,1,0,0,0,.6,1.4l4.5,1.8a.9.9,0,0,1,.5,1.2l-7.8,19.1c-.2,0-.4.1-.4.3a.4.4,0,1,0,.5-.2l7.8-19.1a1,1,0,0,0-.6-1.4l-4.5-1.8a1,1,0,0,1-.5-1.2l6-14.8a2.3,2.3,0,0,1,1.2-1.2l7.4-3.1a2.4,2.4,0,0,0,1.3-1.3l3.7-9.2h-.1L70.6,241A2.5,2.5,0,0,1,69.4,242.3Z"/><path class="cls-5" d="M44.7,285.7a.4.4,0,0,0-.7.3l-3.4,1.4a.4.4,0,0,0-.5-.2.5.5,0,0,0-.2.6.4.4,0,1,0,.7-.3l3.4-1.4a.4.4,0,0,0,.5.1A.4.4,0,0,0,44.7,285.7Z"/><path class="cls-5" d="M44.5,286.2h0Z"/><path class="cls-5" d="M49.5,231.5h-.1l-1.3,3.4a.4.4,0,0,0-.5.2c-.1.2,0,.5.2.5a.5.5,0,0,0,.6-.2c0-.2,0-.4-.2-.5l1.3-3.3,3-1.3h.1l2.5-6.3H55l-2.5,6.2Z"/><path class="cls-5" d="M67.5,247.4Z"/><path class="cls-5" d="M56.2,281.3l1.1-.4a.1.1,0,0,0-.1.1h0l-.9.4a.5.5,0,0,1-.3.5.4.4,0,0,1-.5-.2c-.1-.2,0-.5.2-.5A.4.4,0,0,1,56.2,281.3Z"/><path class="cls-5" d="M67.8,248.2a.4.4,0,0,1-.5-.2h-.2l-4.8,2-2,5-1.2,3-.8,1.9h0c0,.1-.1.2-.1.3a.8.8,0,0,0,.5.7h.1l2.7,1.1,1.6.7h0l-1.9-.8-2.3-.9h-.2a.9.9,0,0,1-.6-.9c0-.1.1-.2.1-.3h.1l.6-1.7,1.2-2.9,2.1-5.2h0l4.8-2h.2v-.2l.2-.3h.4l.2.2A.4.4,0,0,1,67.8,248.2Z"/><path class="cls-5" d="M36.1,289.4a.6.6,0,0,0-.6-.3.8.8,0,0,0-.2.5l-.8.3h0L32.2,291h-.1l-.9.4h-.1l.8,1.9h.2l-.8-1.9.9-.4,2.4-1,.8-.4a.4.4,0,0,0,.7-.3Zm.5-16.2a.4.4,0,0,0,.2-.5.5.5,0,0,0-.6-.2.4.4,0,1,0,.3.7l1.1,2.5-3,7.3h0l-.4.9-3.3,1.4h0l-.4.8h0l-2.7,6.7h.1l2.8-6.8h0l.3-.8,3.3-1.4h0l.5-1h0l2.9-7.3h0Z"/><ellipse class="cls-55" cx="56.8" cy="274.4" rx="11.2" ry="1.5" transform="translate(-218.8 223.9) rotate(-67.9)"/><path class="cls-56" d="M34,269.4l.4-1.2V268l.4-1a19.1,19.1,0,0,1,3.5-1.1h1.2C39.7,266.5,37.3,268,34,269.4Z"/><path class="cls-57" d="M41.6,249.1a30.3,30.3,0,0,1-1.9,4l3.7-10.4C43.6,243.4,42.9,246.1,41.6,249.1Z"/><ellipse class="cls-58" cx="48.1" cy="263.7" rx="6.7" ry="1" transform="translate(-214.4 209.1) rotate(-67.9)"/><ellipse class="cls-59" cx="52.9" cy="258.3" rx="6.7" ry="1" transform="translate(-206.4 210.3) rotate(-67.9)"/><circle class="cls-60" cx="50" cy="257.9" r="1.8"/><ellipse class="cls-61" cx="57.4" cy="228.6" rx="7" ry="1" transform="translate(-176 195.8) rotate(-67.9)"/><path class="cls-62" d="M59.7,246.5c-.2-.5,2.6-2.1,6.1-3.6s6.6-2.3,6.8-1.8-2.5,2.1-6,3.6S60,247,59.7,246.5Z"/><path class="cls-63" d="M42.6,267.8c-.4-.1,0-2.1.9-4.4s2-3.9,2.4-3.7.1,2.1-.8,4.4S43.1,268,42.6,267.8Z"/><path class="cls-64" d="M28.6,286.3c-.1-.4,1.5-1.6,3.7-2.5s4.2-1.4,4.4-.9-1.5,1.5-3.7,2.5S28.8,286.7,28.6,286.3Z"/><path class="cls-65" d="M51.9,269.7c-.2-.5,1.5-1.6,3.7-2.5s4.2-1.4,4.4-.9-1.5,1.5-3.7,2.5S52.1,270.1,51.9,269.7Z"/><path class="cls-66" d="M62.6,261.7l.8.4-.3.7h0c-.1.2-.1.4-.2.6a9.6,9.6,0,0,1-2-.7c-2.2-.9-3.9-2-3.7-2.4s.4-.2.9-.2a.1.1,0,0,1,.1.1h.2a14.1,14.1,0,0,1,3.2,1Z"/><path class="cls-67" d="M77,236.1a25.1,25.1,0,0,1-1.6,4.9,23.6,23.6,0,0,1-2.2,4.5c-1,1.8-1.9,2.9-2.4,2.7h-.2c-.3-.4-.2-1.7.2-3.6s.4-1.5.7-2.3L72,241a5.6,5.6,0,0,1,.4-1.2,33.3,33.3,0,0,1,2.2-4.6c1.1-1.7,2-2.8,2.5-2.6S77.5,234.2,77,236.1Z"/><ellipse class="cls-68" cx="40.2" cy="287.6" rx="3.8" ry="3.2" transform="translate(-108.8 38.3) rotate(-22.9)"/><path class="cls-69" d="M64.7,258h0a3.2,3.2,0,0,1-.4,1.6,3,3,0,0,1-.4.8h0a4,4,0,0,1-1.3,1.3l-1.1.4h-.3A2.5,2.5,0,0,1,60,262l-1.1-.8c0-.1-.1-.1-.1-.2a2.5,2.5,0,0,1-.4-.7c0-.1-.1-.2-.1-.3v-.2a3.8,3.8,0,0,1-.1-1.5l.3-1.1a4.1,4.1,0,0,1,1.6-2h.2a3.1,3.1,0,0,1,2.3-.4.1.1,0,0,0,.1.1h.2A3.3,3.3,0,0,1,64.7,258Z"/><ellipse class="cls-70" cx="58.1" cy="266.2" rx="3.8" ry="3.2" transform="translate(-210.4 220) rotate(-67.9)"/><path class="cls-71" d="M49.6,242.2l-.8.5-1,.2h-.1a3.1,3.1,0,0,1-2.3-1.1.1.1,0,0,1-.1-.1h0l-.6-.7-.3-.6v-.3l1-2.8h0l.6-1.6a3.7,3.7,0,0,1,1.8-.1l.4.2a3.7,3.7,0,0,1,1.8,1.7H50l.2.4a.4.4,0,0,1,.1.3A3.8,3.8,0,0,1,49.6,242.2Z"/><ellipse class="cls-72" cx="50.1" cy="245.9" rx="3.2" ry="3.8" transform="translate(-91.8 38.9) rotate(-22.9)"/><ellipse class="cls-73" cx="60.1" cy="232.8" rx="3.9" ry="3.7" transform="translate(-85.9 41.8) rotate(-22.9)"/><ellipse class="cls-74" cx="47.6" cy="287.3" rx="3.9" ry="3.7" transform="translate(-108.1 41.2) rotate(-22.9)"/><ellipse class="cls-75" cx="35.7" cy="289.5" rx="3.8" ry="3.2" transform="translate(-109.9 36.8) rotate(-22.9)"/><path class="cls-76" d="M29.1,283.3c0,.1-.1.2-.1.3h0Z"/><path class="cls-77" d="M32,277.4a3.6,3.6,0,0,1-.7,1l-.6.5.3-1.1,1-2.7A3,3,0,0,1,32,277.4Z"/><circle class="cls-78" cx="48.7" cy="261.8" r="1.8"/><circle class="cls-79" cx="52.5" cy="259.8" r="1.8"/><path class="cls-80" d="M63.9,260.4a10.9,10.9,0,0,0-.5,1.7l-.3.7h0c-.1.2-.1.4-.2.6l-1.2,3.6h0l-.6.2H58.5l-.8-.3h-.1a1,1,0,0,1-.5-.4,4,4,0,0,1-1.6-2h-.1a6.3,6.3,0,0,1-.3-1.9v-.2a4.6,4.6,0,0,1,2.9-4.1h.2l.7-.2h.2a4.8,4.8,0,0,1,1.7,0h.1l.7.3a4.5,4.5,0,0,1,2.3,2Z"/><path class="cls-81" d="M67.8,247.5h0l-.6.2h-.3a3.9,3.9,0,0,1-3.8-1.8l-.3-.5a.4.4,0,0,0-.1-.3h0a1.5,1.5,0,0,1-.1-.7,4.2,4.2,0,0,1,.5-2.4h.1v-.2a4.4,4.4,0,0,1,1.5-1.2,3.4,3.4,0,0,1,2.2-.2h.2a4.2,4.2,0,0,1,1.6.9l.4.3.4.6h0l.2.3c0,.2.1.3.1.5s.1.5.2.7A3.8,3.8,0,0,1,67.8,247.5Z"/><path class="cls-82" d="M76,245.2a4.5,4.5,0,0,1-2.8.3,2.7,2.7,0,0,1-1.2-.3h-.2a2.7,2.7,0,0,1-1-.6l-.7-.7-.5-.5c-.1-.3-.3-.5-.4-.8h-.1a1.9,1.9,0,0,0-.2-.7.6.6,0,0,0-.1-.4,5.2,5.2,0,0,1,3.1-5.7l1-.3h1.7l1.2.3h.1l1.1.6a5.5,5.5,0,0,1,1.8,2.2A5.3,5.3,0,0,1,76,245.2Z"/><circle class="cls-83" cx="60.5" cy="233.2" r="5.2"/><circle class="cls-84" cx="49.2" cy="243" r="4.9" transform="translate(-194.5 197.3) rotate(-67.9)"/><path class="cls-85" d="M52.7,289.8h0c-.2.3-.3.7-.5,1h0a15.1,15.1,0,0,1-2.9,1.3h-.2l-2.6.7h0l-.9-.4h-.1a5.1,5.1,0,0,1-2.4-2.6c-.1-.1-.1-.3-.2-.4v-.2h0a3.9,3.9,0,0,1,0-2.6h0v-.2h0a4.2,4.2,0,0,1,.4-1,5.1,5.1,0,0,1,2.5-2.3H46a.1.1,0,0,1,.1-.1,6.3,6.3,0,0,1,2.3-.3h.2a5.5,5.5,0,0,1,3.6,2.2,2.5,2.5,0,0,0,.4.7v.2A4.8,4.8,0,0,1,52.7,289.8Z"/><circle class="cls-86" cx="38.4" cy="289" r="4"/><circle class="cls-87" cx="51" cy="261.1" r="3.5"/><path class="cls-88" d="M29.7,283h-.5l1.5-4.2h0l.3-1.1c.1.2.3.4.3.6h.1A3.3,3.3,0,0,1,29.7,283Z"/><path class="cls-89" d="M50.5,222.5l44,67.6s16.3,14,24.7-4.5L74.7,222.5S65.6,209.8,50.5,222.5Z"/><polygon class="cls-90" points="154.3 260 143.1 253.6 143.1 266.4 154.3 260"/><rect class="cls-91" x="346.8" y="227.1" width="2.3" height="57.1"/><path class="cls-92" d="M373.9,232.7a5.3,5.3,0,0,1,1.9,2.3v-7.9h3.7v19.6h-3.7v-3.1a5,5,0,0,1-1.9,2.4,5.2,5.2,0,0,1-3.1.9,6.4,6.4,0,0,1-3.4-.9,5.8,5.8,0,0,1-2.3-2.6,8.8,8.8,0,0,1-.8-4.1,8.7,8.7,0,0,1,.8-4,5.8,5.8,0,0,1,2.3-2.6,6.4,6.4,0,0,1,3.4-.9A5.2,5.2,0,0,1,373.9,232.7Zm-4.8,3.5a4.5,4.5,0,0,0-1,3.1,4.6,4.6,0,0,0,1,3.2,3.9,3.9,0,0,0,2.8,1.1,3.5,3.5,0,0,0,2.8-1.2,3.9,3.9,0,0,0,1.1-3.1,4.1,4.1,0,0,0-1.1-3.1,3.8,3.8,0,0,0-2.8-1.1A3.6,3.6,0,0,0,369.1,236.2Z"/><path class="cls-93" d="M396.6,240.1H385.9a3.8,3.8,0,0,0,1,2.8,3.3,3.3,0,0,0,2.5,1,3.1,3.1,0,0,0,2.1-.7,2.5,2.5,0,0,0,1.1-1.7h4a6,6,0,0,1-1.3,2.8,6.5,6.5,0,0,1-2.4,1.9,8.9,8.9,0,0,1-3.4.7,7.9,7.9,0,0,1-3.8-.9,6.2,6.2,0,0,1-2.6-2.7,8.2,8.2,0,0,1-.9-4,8.7,8.7,0,0,1,.9-4,6.5,6.5,0,0,1,2.6-2.6,7.9,7.9,0,0,1,3.8-.9,8,8,0,0,1,3.9.9,6.7,6.7,0,0,1,2.5,2.5,6.4,6.4,0,0,1,.7,4.9Zm-4.5-4.4a4,4,0,0,0-2.6-1,3.7,3.7,0,0,0-2.5,1,3.4,3.4,0,0,0-1.1,2.7H393A3.7,3.7,0,0,0,392.1,235.7Z"/><path class="cls-94" d="M408.8,233.2a5.9,5.9,0,0,1,2,3.6h-3.5a2.7,2.7,0,0,0-1-1.7,2.5,2.5,0,0,0-1.9-.7,2.5,2.5,0,0,0-1.5.5,1.7,1.7,0,0,0-.5,1.2,1.3,1.3,0,0,0,.4,1l1.1.6,1.8.5a12.5,12.5,0,0,1,2.7.8,3.8,3.8,0,0,1,1.8,1.3,3.3,3.3,0,0,1,.8,2.4,3.7,3.7,0,0,1-1.5,3,6.2,6.2,0,0,1-4,1.2,7.5,7.5,0,0,1-4.5-1.3,5.2,5.2,0,0,1-2.1-3.7h3.5a2.3,2.3,0,0,0,1,1.7,3.5,3.5,0,0,0,2.1.6,2.1,2.1,0,0,0,1.5-.4,1.7,1.7,0,0,0,.5-1.2,1.5,1.5,0,0,0-.4-1.1l-1.1-.6-1.9-.5-2.6-.7a4.6,4.6,0,0,1-1.8-1.3,3.2,3.2,0,0,1-.7-2.3,3.7,3.7,0,0,1,1.5-3.1,6,6,0,0,1,4-1.2A6.5,6.5,0,0,1,408.8,233.2Z"/><path class="cls-95" d="M414,226.3a2.4,2.4,0,0,1,1.7-.6,2.3,2.3,0,0,1,1.6.6,1.8,1.8,0,0,1,.7,1.5,1.6,1.6,0,0,1-.7,1.4,2.3,2.3,0,0,1-1.6.6,2.4,2.4,0,0,1-1.7-.6,1.9,1.9,0,0,1-.7-1.4A2.1,2.1,0,0,1,414,226.3Zm3.5,5.7v14.7h-3.7V232Z"/><path class="cls-96" d="M429.9,232.7a5,5,0,0,1,1.8,2.3v-3h3.8v14.7a7.5,7.5,0,0,1-.9,3.7,5.5,5.5,0,0,1-2.4,2.6,7.5,7.5,0,0,1-3.9.9,8.1,8.1,0,0,1-5.1-1.5,6.4,6.4,0,0,1-2.4-4.1h3.7a3,3,0,0,0,1.2,1.7,4.3,4.3,0,0,0,2.4.6,3.6,3.6,0,0,0,2.6-.9,3.9,3.9,0,0,0,1-3v-3.1a4.8,4.8,0,0,1-1.8,2.4,5.7,5.7,0,0,1-3.2.9,6.4,6.4,0,0,1-3.4-.9,6.5,6.5,0,0,1-2.3-2.6,8.8,8.8,0,0,1-.8-4.1,8.7,8.7,0,0,1,.8-4,6.5,6.5,0,0,1,2.3-2.6,6.4,6.4,0,0,1,3.4-.9A5.7,5.7,0,0,1,429.9,232.7Zm-4.9,3.5a4.5,4.5,0,0,0-1,3.1,4.6,4.6,0,0,0,1,3.2,3.9,3.9,0,0,0,2.8,1.1,3.5,3.5,0,0,0,2.8-1.2,3.9,3.9,0,0,0,1.1-3.1,4.1,4.1,0,0,0-1.1-3.1,3.8,3.8,0,0,0-2.8-1.1A3.6,3.6,0,0,0,425,236.2Z"/><path class="cls-97" d="M451.7,233.4a7,7,0,0,1,1.5,4.7v8.6h-3.7v-8.1a3.7,3.7,0,0,0-.9-2.7,3.2,3.2,0,0,0-2.5-1,3.4,3.4,0,0,0-2.6,1,4.5,4.5,0,0,0-.9,3v7.8h-3.7V232h3.7v2.9a4.8,4.8,0,0,1,1.9-2.3,6.2,6.2,0,0,1,3.1-.8A5.3,5.3,0,0,1,451.7,233.4Z"/><path class="cls-98" d="M470.1,243.5v3.2h-2a5.1,5.1,0,0,1-3.7-1.2c-.9-.8-1.3-2.1-1.3-4v-6.4H461V232h2.1v-3.6h3.7V232h3.3v3.1h-3.3v6.5a2.1,2.1,0,0,0,.4,1.5,2.7,2.7,0,0,0,1.5.4Z"/><path class="cls-99" d="M483.4,232.7a6.2,6.2,0,0,1,2.7,2.6,7.7,7.7,0,0,1,1,4,7.2,7.2,0,0,1-1,4,5.9,5.9,0,0,1-2.7,2.7,7.9,7.9,0,0,1-3.8.9,8.6,8.6,0,0,1-3.9-.9,7,7,0,0,1-2.7-2.7,8.2,8.2,0,0,1-1-4,8.8,8.8,0,0,1,1-4,7.5,7.5,0,0,1,2.7-2.6,8.6,8.6,0,0,1,3.9-.9A7.9,7.9,0,0,1,483.4,232.7Zm-6.5,3.4a4.6,4.6,0,0,0-1.1,3.2,4.4,4.4,0,0,0,1.1,3.2,3.5,3.5,0,0,0,2.7,1.1,3.3,3.3,0,0,0,2.6-1.1,4,4,0,0,0,1.1-3.2,4.2,4.2,0,0,0-1.1-3.2,3.6,3.6,0,0,0-2.6-1.1A3.9,3.9,0,0,0,476.9,236.1Z"/><path class="cls-100" d="M374.4,265a6.4,6.4,0,0,1,2,3.6h-3.5a3.2,3.2,0,0,0-1-1.7,2.9,2.9,0,0,0-1.9-.6,2.2,2.2,0,0,0-1.5.4,1.3,1.3,0,0,0-.5,1.2,1.1,1.1,0,0,0,.4,1,2,2,0,0,0,1.1.6l1.8.5,2.7.8a4.6,4.6,0,0,1,1.8,1.3,3.6,3.6,0,0,1,.8,2.4,3.7,3.7,0,0,1-1.5,3.1,6.8,6.8,0,0,1-4,1.1,7.4,7.4,0,0,1-4.6-1.3,5.7,5.7,0,0,1-2.1-3.6H368a2.3,2.3,0,0,0,1,1.7,3.3,3.3,0,0,0,2.1.6,2.1,2.1,0,0,0,1.5-.5,1.7,1.7,0,0,0,.5-1.2,1.8,1.8,0,0,0-.4-1,2.4,2.4,0,0,0-1.1-.6l-1.9-.5a16.5,16.5,0,0,1-2.6-.8,4.4,4.4,0,0,1-1.8-1.2,3.6,3.6,0,0,1-.7-2.4,4.1,4.1,0,0,1,1.4-3.1,6.5,6.5,0,0,1,4.1-1.2A6.5,6.5,0,0,1,374.4,265Z"/><path class="cls-101" d="M379.6,258.1a2.5,2.5,0,0,1,1.6-.5,2.9,2.9,0,0,1,1.7.5,2.2,2.2,0,0,1,0,3,2.9,2.9,0,0,1-1.7.5,2.5,2.5,0,0,1-1.6-.5,2,2,0,0,1,0-3Zm3.5,5.7v14.7h-3.7V263.8Z"/><path class="cls-102" d="M409.4,265.3A6.4,6.4,0,0,1,411,270v8.5h-3.7v-8.1a3.6,3.6,0,0,0-.9-2.6,3.2,3.2,0,0,0-2.4-.9,3.3,3.3,0,0,0-2.5,1,3.9,3.9,0,0,0-.9,2.8v7.8h-3.7v-8.1a3.6,3.6,0,0,0-.9-2.6,2.9,2.9,0,0,0-2.3-.9,3,3,0,0,0-2.5,1,3.6,3.6,0,0,0-1,2.8v7.8h-3.7V263.8h3.7v2.8a4.5,4.5,0,0,1,1.9-2.2,5.5,5.5,0,0,1,2.9-.8,5.4,5.4,0,0,1,3.1.9,5.3,5.3,0,0,1,2,2.4,5.2,5.2,0,0,1,2-2.4,5.6,5.6,0,0,1,3.1-.9A5.4,5.4,0,0,1,409.4,265.3Z"/><path class="cls-103" d="M426.4,264.5a6.1,6.1,0,0,1,2.3,2.7,8.2,8.2,0,0,1,.9,4,8.4,8.4,0,0,1-.9,4,5.8,5.8,0,0,1-2.3,2.6,6.3,6.3,0,0,1-3.3.9,5.5,5.5,0,0,1-3.2-.9,5.3,5.3,0,0,1-1.9-2.3v10h-3.7V263.8H418v3.1a5,5,0,0,1,1.9-2.4,5.5,5.5,0,0,1,3.2-.9A6.3,6.3,0,0,1,426.4,264.5Zm-7.3,3.6a4.3,4.3,0,0,0-1.1,3.1,4.5,4.5,0,0,0,1.1,3.1,3.9,3.9,0,0,0,2.8,1.1,3.4,3.4,0,0,0,2.8-1.1,4.9,4.9,0,0,0,0-6.2,3.5,3.5,0,0,0-2.8-1.2A3.6,3.6,0,0,0,419.1,268.1Z"/><path class="cls-104" d="M436,258.9v19.6h-3.8V258.9Z"/><path class="cls-105" d="M439.6,258.1a2.5,2.5,0,0,1,1.6-.5,2.9,2.9,0,0,1,1.7.5,2.2,2.2,0,0,1,0,3,2.9,2.9,0,0,1-1.7.5,2.5,2.5,0,0,1-1.6-.5,2,2,0,0,1,0-3Zm3.5,5.7v14.7h-3.7V263.8Z"/><path class="cls-106" d="M451.5,261.8a2.3,2.3,0,0,0-.7,2h3V267h-3v11.5H447V267h-1.8v-3.2H447v-.3a5.4,5.4,0,0,1,1.5-4.1A6.5,6.5,0,0,1,453,258h.8v3.3A2.9,2.9,0,0,0,451.5,261.8Z"/><path class="cls-107" d="M458.5,263.8l4,10,3.7-10h4.1l-8.9,21.7h-4.2l3.3-7.4-6.2-14.3Z"/><rect class="cls-5" x="212.5" y="256.1" width="6.7" height="0.91"/><polygon class="cls-108" points="246 247.7 244.2 251.4 243.5 252.9 241.5 257.2 241.1 258 241.1 258 241 258.2 240.4 259.3 240 260.2 239.7 260.8 239.7 260.9 239.6 261 239.3 261.7 239.2 261.9 238.6 263.2 238.3 263.9 238.3 263.9 238.2 264.1 237.9 264.7 237.8 264.9 237.1 266.3 236.8 266.9 236.8 266.9 236.7 267.1 236.4 267.8 236.3 267.9 233.7 273.5 225.4 273.5 222.9 267.9 222.8 267.8 222.5 267.1 222.4 266.9 222.4 266.9 222.1 266.3 221.5 264.9 221.4 264.7 221.1 264.1 221 263.9 221 263.9 220.7 263.2 220.1 261.9 220 261.7 219.7 261 219.7 260.9 219.6 260.8 219.3 260.2 213.6 247.7 222.8 247.7 228.5 260.2 228.8 260.8 228.8 260.9 228.8 261 229.1 261.7 229.2 261.9 229.8 263.2 230.5 261.9 230.5 261.7 230.8 261 230.9 260.9 230.9 260.8 231.2 260.2 233.9 254.3 234.6 252.9 235.3 251.4 237 247.7 246 247.7"/><path class="cls-109" d="M289.4,247.7v8.1c-1.3,0-2.5-.1-3.7,0a5.7,5.7,0,0,0-5.4,3.3,6.5,6.5,0,0,0-.8,3.1c-.1,3.6,0,7.2,0,11h-8.1V262.1a14.4,14.4,0,0,1,14-14.4Z"/><path class="cls-110" d="M176.7,273.8h-4.8v-9.8c.1-1.4.1-2.8.2-4.1a13.4,13.4,0,0,1,13.5-12.4,13.7,13.7,0,0,1,13.8,12.4c.3,4.4.1,9.4.1,13.9h-8.2V262.2a9,9,0,0,0-.4-2.8,5.3,5.3,0,0,0-5.9-3.7,5.3,5.3,0,0,0-4.8,4.9c-.2,3.7-.1,7.4-.1,11.2a12,12,0,0,0,0,1.9h-3.3Z"/><polygon class="cls-5" points="176.8 273.8 176.8 266.3 176.8 265.5 177.3 265.5 177.3 266.3 177.3 273.8 176.8 273.8"/><circle class="cls-5" cx="177.1" cy="265.5" r="0.9"/><rect class="cls-5" x="174.1" y="262.4" width="0.5" height="11.4"/><circle class="cls-5" cx="174.3" cy="262.4" r="0.9"/><circle class="cls-5" cx="174.3" cy="268.5" r="0.9"/><path class="cls-5" d="M275.4,273.2h-1v-13a9,9,0,0,1,2.6-6.2,9.2,9.2,0,0,1,4.7-2.7l.2.9a9.5,9.5,0,0,0-4.3,2.4,8.8,8.8,0,0,0-2.3,5.7v12.9Z"/><path class="cls-5" d="M281.6,250a1.8,1.8,0,1,1-1.5,2A1.8,1.8,0,0,1,281.6,250Z"/><polygon class="cls-5" points="236.8 266.9 236.7 267.1 236.4 267.8 236.3 267.9 222.9 267.9 222.8 267.8 222.5 267.1 222.4 266.9 236.8 266.9"/><polygon class="cls-5" points="238.3 263.9 238.2 264.1 237.9 264.7 237.8 264.9 221.5 264.9 221.4 264.7 221.1 264.1 221 263.9 238.3 263.9"/><polygon class="cls-5" points="229.2 261.9 220.1 261.9 220 261.7 219.7 261 219.7 260.9 228.8 260.9 228.8 261 229.1 261.7 229.2 261.9"/><polygon class="cls-5" points="239.7 260.9 239.6 261 239.3 261.7 239.2 261.9 230.5 261.9 230.5 261.7 230.8 261 230.9 260.9 239.7 260.9"/><polygon class="cls-5" points="233.9 254.3 237 259.3 240.4 259.3 241 258.2 241.1 258 237.7 258 234.6 252.9 234.6 252.9 233.9 254.3"/><polygon class="cls-5" points="235.3 251.4 245 251.4 249.1 251.4 249.1 252.9 244.2 252.9 234.6 252.9 235.3 251.4"/><path class="cls-111" d="M266.5,265v8.1c-5.4.3-10.6.2-14.7-4.2a13.5,13.5,0,0,1-3.5-8.9v-9.5h0v-.9h0v-9.5h8.1v7.5h10.1v8.2H256.4a31.2,31.2,0,0,0,.4,5.4,5.2,5.2,0,0,0,5.3,3.8Z"/><path class="cls-5" d="M278,273.2h-.9V260.6a5.8,5.8,0,0,1,.1-1,5.3,5.3,0,0,1,.7-2.3,5.7,5.7,0,0,1,1.8-2l.5.8a5.6,5.6,0,0,0-1.5,1.6,8.2,8.2,0,0,0-.6,2,3.2,3.2,0,0,0-.1.8Z"/><path class="cls-112" d="M316.7,257.6h-.2l.3.4.2-.3Z"/><path class="cls-113" d="M319.2,260.1a2.5,2.5,0,0,1-2.5,2.5,2.4,2.4,0,0,1-1.5-.4,3.1,3.1,0,0,1-.7-.9,2.1,2.1,0,0,1-.3-1.2,2.5,2.5,0,0,1,1-2,3.9,3.9,0,0,0-2.4-1.1h-3.3l-.7-.9h4.1a5.2,5.2,0,0,1,3.2,1.6h.4l.3.4.2-.3A2.5,2.5,0,0,1,319.2,260.1Z"/><path class="cls-114" d="M314.2,260.1a2.1,2.1,0,0,0,.3,1.2l-8.2,10.9-.5.7-.5.7H302l10-13.3-2.5-3.3h3.3a3.9,3.9,0,0,1,2.4,1.1A2.5,2.5,0,0,0,314.2,260.1Z"/><path class="cls-115" d="M321.5,260.2l10,13.4h-8.9l-5.9-8.1-5.8,8.1h-4.3l.5-.7.6-.7,7.5-10a2.4,2.4,0,0,0,1.5.4,2.5,2.5,0,0,0,.3-4.9h-.9a5.2,5.2,0,0,0-3.2-1.6h-4.1l-6.9-8.7h9l5.8,8.2,5.8-8.2h9.1Z"/><path class="cls-112" d="M316.7,257.6h-.2l.3.4.2-.3Z"/><path class="cls-5" d="M315.2,262.2l-7.5,10-.6.7-.5.7h-1.3l.5-.7.5-.7,8.2-10.9A3.1,3.1,0,0,0,315.2,262.2Z"/><path class="cls-116" d="M315.6,261.7l-.4.5a3.1,3.1,0,0,1-.7-.9l.2-.2Z"/><path class="cls-5" d="M317.6,261.2h-.9a8.3,8.3,0,0,0-.8-2.4,2.7,2.7,0,0,0-.7-.8,4,4,0,0,0-2.3-1.1H298.8v-.9h14.1a5.2,5.2,0,0,1,3.2,1.6,3.6,3.6,0,0,1,.7,1A9.2,9.2,0,0,1,317.6,261.2Z"/><path class="cls-117" d="M319.2,260.1a2.5,2.5,0,0,1-2.5,2.5,2.4,2.4,0,0,1-1.5-.4,3.1,3.1,0,0,1-.7-.9,2.1,2.1,0,0,1-.3-1.2,2.5,2.5,0,0,1,1-2l.9-.4h.9A2.5,2.5,0,0,1,319.2,260.1Z"/><circle class="cls-118" cx="316.7" cy="260.1" r="1.5"/><rect class="cls-119" x="203.1" y="237.5" width="7.7" height="7.66"/><path class="cls-120" d="M203.1,247.4v26.3h7.6V247.4Z"/><path class="cls-5" d="M211.5,257.1h-.8a4,4,0,0,0-3.4,3.7v12.8h-.9V260.8a4.9,4.9,0,0,1,4.3-4.5h.7Z"/><circle class="cls-5" cx="211.3" cy="256.6" r="1.9"/><rect class="cls-119" x="291.9" y="237.5" width="7.7" height="7.66"/><path class="cls-120" d="M291.9,247.4v26.3h7.6V247.4Z"/><path class="cls-5" d="M300.3,257.1h-.8a4,4,0,0,0-3.4,3.7v12.8h-.9V260.8a4.9,4.9,0,0,1,4.3-4.5h.7Z"/><circle class="cls-5" cx="300.1" cy="256.6" r="1.9"/></g></g></svg>